<svg width="1437" height="118" viewBox="0 0 1437 118" fill="none" xmlns="http://www.w3.org/2000/svg">
<path d="M20.875 27H17.69L4.88 7.575V27H1.695V2.57H4.88L17.69 21.96V2.57H20.875V27ZM43.8044 16.675C43.8044 17.2817 43.7694 17.9233 43.6994 18.6H28.3694C28.486 20.49 29.1277 21.9717 30.2944 23.045C31.4844 24.095 32.9194 24.62 34.5994 24.62C35.976 24.62 37.1194 24.305 38.0294 23.675C38.9627 23.0217 39.616 22.1583 39.9894 21.085H43.4194C42.906 22.9283 41.8794 24.4333 40.3394 25.6C38.7994 26.7433 36.886 27.315 34.5994 27.315C32.7794 27.315 31.146 26.9067 29.6994 26.09C28.276 25.2733 27.156 24.1183 26.3394 22.625C25.5227 21.1083 25.1144 19.3583 25.1144 17.375C25.1144 15.3917 25.511 13.6533 26.3044 12.16C27.0977 10.6667 28.206 9.52333 29.6294 8.73C31.076 7.91333 32.7327 7.505 34.5994 7.505C36.4194 7.505 38.0294 7.90167 39.4294 8.695C40.8294 9.48833 41.9027 10.585 42.6494 11.985C43.4194 13.3617 43.8044 14.925 43.8044 16.675ZM40.5144 16.01C40.5144 14.7967 40.246 13.7583 39.7094 12.895C39.1727 12.0083 38.4377 11.3433 37.5044 10.9C36.5944 10.4333 35.5794 10.2 34.4594 10.2C32.8494 10.2 31.4727 10.7133 30.3294 11.74C29.2094 12.7667 28.5677 14.19 28.4044 16.01H40.5144ZM73.5585 7.82L67.5735 27H64.2835L59.6635 11.775L55.0435 27H51.7535L45.7335 7.82H48.9885L53.3985 23.92L58.1585 7.82H61.4135L66.0685 23.955L70.4085 7.82H73.5585ZM98.3355 2.605V20.63C98.3355 22.6367 97.7171 24.2467 96.4805 25.46C95.2438 26.65 93.6105 27.245 91.5805 27.245C89.5271 27.245 87.8821 26.6383 86.6455 25.425C85.4088 24.1883 84.7905 22.5083 84.7905 20.385H87.9755C87.9988 21.575 88.3021 22.5433 88.8855 23.29C89.4921 24.0367 90.3905 24.41 91.5805 24.41C92.7705 24.41 93.6571 24.06 94.2405 23.36C94.8238 22.6367 95.1155 21.7267 95.1155 20.63V2.605H98.3355ZM122.11 16.675C122.11 17.2817 122.075 17.9233 122.005 18.6H106.675C106.792 20.49 107.433 21.9717 108.6 23.045C109.79 24.095 111.225 24.62 112.905 24.62C114.282 24.62 115.425 24.305 116.335 23.675C117.268 23.0217 117.922 22.1583 118.295 21.085H121.725C121.212 22.9283 120.185 24.4333 118.645 25.6C117.105 26.7433 115.192 27.315 112.905 27.315C111.085 27.315 109.452 26.9067 108.005 26.09C106.582 25.2733 105.462 24.1183 104.645 22.625C103.828 21.1083 103.42 19.3583 103.42 17.375C103.42 15.3917 103.817 13.6533 104.61 12.16C105.403 10.6667 106.512 9.52333 107.935 8.73C109.382 7.91333 111.038 7.505 112.905 7.505C114.725 7.505 116.335 7.90167 117.735 8.695C119.135 9.48833 120.208 10.585 120.955 11.985C121.725 13.3617 122.11 14.925 122.11 16.675ZM118.82 16.01C118.82 14.7967 118.552 13.7583 118.015 12.895C117.478 12.0083 116.743 11.3433 115.81 10.9C114.9 10.4333 113.885 10.2 112.765 10.2C111.155 10.2 109.778 10.7133 108.635 11.74C107.515 12.7667 106.873 14.19 106.71 16.01H118.82ZM129.499 10.935C130.059 9.83833 130.852 8.98667 131.879 8.38C132.929 7.77333 134.201 7.47 135.694 7.47V10.76H134.854C131.284 10.76 129.499 12.6967 129.499 16.57V27H126.314V7.82H129.499V10.935ZM146.161 27.315C144.691 27.315 143.372 27.07 142.206 26.58C141.039 26.0667 140.117 25.3667 139.441 24.48C138.764 23.57 138.391 22.5317 138.321 21.365H141.611C141.704 22.3217 142.147 23.1033 142.941 23.71C143.757 24.3167 144.819 24.62 146.126 24.62C147.339 24.62 148.296 24.3517 148.996 23.815C149.696 23.2783 150.046 22.6017 150.046 21.785C150.046 20.945 149.672 20.3267 148.926 19.93C148.179 19.51 147.024 19.1017 145.461 18.705C144.037 18.3317 142.871 17.9583 141.961 17.585C141.074 17.1883 140.304 16.6167 139.651 15.87C139.021 15.1 138.706 14.0967 138.706 12.86C138.706 11.88 138.997 10.9817 139.581 10.165C140.164 9.34833 140.992 8.70667 142.066 8.24C143.139 7.75 144.364 7.505 145.741 7.505C147.864 7.505 149.579 8.04167 150.886 9.115C152.192 10.1883 152.892 11.6583 152.986 13.525H149.801C149.731 12.5217 149.322 11.7167 148.576 11.11C147.852 10.5033 146.872 10.2 145.636 10.2C144.492 10.2 143.582 10.445 142.906 10.935C142.229 11.425 141.891 12.0667 141.891 12.86C141.891 13.49 142.089 14.015 142.486 14.435C142.906 14.8317 143.419 15.1583 144.026 15.415C144.656 15.6483 145.519 15.9167 146.616 16.22C147.992 16.5933 149.112 16.9667 149.976 17.34C150.839 17.69 151.574 18.2267 152.181 18.95C152.811 19.6733 153.137 20.6183 153.161 21.785C153.161 22.835 152.869 23.78 152.286 24.62C151.702 25.46 150.874 26.125 149.801 26.615C148.751 27.0817 147.537 27.315 146.161 27.315ZM175.157 16.675C175.157 17.2817 175.122 17.9233 175.052 18.6H159.722C159.839 20.49 160.48 21.9717 161.647 23.045C162.837 24.095 164.272 24.62 165.952 24.62C167.329 24.62 168.472 24.305 169.382 23.675C170.315 23.0217 170.969 22.1583 171.342 21.085H174.772C174.259 22.9283 173.232 24.4333 171.692 25.6C170.152 26.7433 168.239 27.315 165.952 27.315C164.132 27.315 162.499 26.9067 161.052 26.09C159.629 25.2733 158.509 24.1183 157.692 22.625C156.875 21.1083 156.467 19.3583 156.467 17.375C156.467 15.3917 156.864 13.6533 157.657 12.16C158.45 10.6667 159.559 9.52333 160.982 8.73C162.429 7.91333 164.085 7.505 165.952 7.505C167.772 7.505 169.382 7.90167 170.782 8.695C172.182 9.48833 173.255 10.585 174.002 11.985C174.772 13.3617 175.157 14.925 175.157 16.675ZM171.867 16.01C171.867 14.7967 171.599 13.7583 171.062 12.895C170.525 12.0083 169.79 11.3433 168.857 10.9C167.947 10.4333 166.932 10.2 165.812 10.2C164.202 10.2 162.825 10.7133 161.682 11.74C160.562 12.7667 159.92 14.19 159.757 16.01H171.867ZM195.881 7.82L184.331 36.03H181.041L184.821 26.79L177.086 7.82H180.621L186.641 23.36L192.591 7.82H195.881ZM207.504 24.445C210.467 22.065 212.789 20.1167 214.469 18.6C216.149 17.06 217.56 15.4617 218.704 13.805C219.87 12.125 220.454 10.48 220.454 8.87C220.454 7.35333 220.08 6.16333 219.334 5.3C218.61 4.41333 217.432 3.97 215.799 3.97C214.212 3.97 212.975 4.47167 212.089 5.475C211.225 6.455 210.759 7.77333 210.689 9.43H207.609C207.702 6.81667 208.495 4.79833 209.989 3.375C211.482 1.95167 213.407 1.24 215.764 1.24C218.167 1.24 220.069 1.905 221.469 3.235C222.892 4.565 223.604 6.39667 223.604 8.73C223.604 10.6667 223.02 12.5567 221.854 14.4C220.71 16.22 219.404 17.83 217.934 19.23C216.464 20.6067 214.585 22.2167 212.299 24.06H224.339V26.72H207.504V24.445ZM229.561 27.21C228.954 27.21 228.441 27 228.021 26.58C227.601 26.16 227.391 25.6467 227.391 25.04C227.391 24.4333 227.601 23.92 228.021 23.5C228.441 23.08 228.954 22.87 229.561 22.87C230.144 22.87 230.634 23.08 231.031 23.5C231.451 23.92 231.661 24.4333 231.661 25.04C231.661 25.6467 231.451 26.16 231.031 26.58C230.634 27 230.144 27.21 229.561 27.21ZM229.561 12.23C228.954 12.23 228.441 12.02 228.021 11.6C227.601 11.18 227.391 10.6667 227.391 10.06C227.391 9.45333 227.601 8.94 228.021 8.52C228.441 8.1 228.954 7.89 229.561 7.89C230.144 7.89 230.634 8.1 231.031 8.52C231.451 8.94 231.661 9.45333 231.661 10.06C231.661 10.6667 231.451 11.18 231.031 11.6C230.634 12.02 230.144 12.23 229.561 12.23ZM234.632 4.6V1.695H241.212V27H237.992V4.6H234.632ZM250.778 20.21C251.011 21.54 251.548 22.5667 252.388 23.29C253.251 24.0133 254.406 24.375 255.853 24.375C257.789 24.375 259.213 23.6167 260.123 22.1C261.056 20.5833 261.499 18.0283 261.453 14.435C260.963 15.485 260.146 16.3133 259.003 16.92C257.859 17.5033 256.588 17.795 255.188 17.795C253.624 17.795 252.224 17.48 250.988 16.85C249.774 16.1967 248.818 15.2517 248.118 14.015C247.418 12.7783 247.068 11.285 247.068 9.535C247.068 7.03833 247.791 5.03167 249.238 3.515C250.684 1.975 252.738 1.205 255.398 1.205C258.664 1.205 260.951 2.26667 262.258 4.39C263.588 6.51333 264.253 9.675 264.253 13.875C264.253 16.815 263.984 19.2417 263.448 21.155C262.934 23.0683 262.048 24.5267 260.788 25.53C259.551 26.5333 257.848 27.035 255.678 27.035C253.298 27.035 251.443 26.3933 250.113 25.11C248.783 23.8267 248.024 22.1933 247.838 20.21H250.778ZM255.713 15.1C257.276 15.1 258.559 14.6217 259.563 13.665C260.566 12.685 261.068 11.3667 261.068 9.71C261.068 7.96 260.578 6.54833 259.598 5.475C258.618 4.40167 257.241 3.865 255.468 3.865C253.834 3.865 252.528 4.37833 251.548 5.405C250.591 6.43167 250.113 7.785 250.113 9.465C250.113 11.1683 250.591 12.5333 251.548 13.56C252.504 14.5867 253.893 15.1 255.713 15.1ZM268.064 17.34C268.064 15.38 268.46 13.665 269.254 12.195C270.047 10.7017 271.132 9.54667 272.509 8.73C273.909 7.91333 275.46 7.505 277.164 7.505C278.844 7.505 280.302 7.86667 281.539 8.59C282.775 9.31333 283.697 10.2233 284.304 11.32V7.82H287.524V27H284.304V23.43C283.674 24.55 282.729 25.4833 281.469 26.23C280.232 26.9533 278.785 27.315 277.129 27.315C275.425 27.315 273.885 26.895 272.509 26.055C271.132 25.215 270.047 24.0367 269.254 22.52C268.46 21.0033 268.064 19.2767 268.064 17.34ZM284.304 17.375C284.304 15.9283 284.012 14.6683 283.429 13.595C282.845 12.5217 282.052 11.705 281.049 11.145C280.069 10.5617 278.984 10.27 277.794 10.27C276.604 10.27 275.519 10.55 274.539 11.11C273.559 11.67 272.777 12.4867 272.194 13.56C271.61 14.6333 271.319 15.8933 271.319 17.34C271.319 18.81 271.61 20.0933 272.194 21.19C272.777 22.2633 273.559 23.0917 274.539 23.675C275.519 24.235 276.604 24.515 277.794 24.515C278.984 24.515 280.069 24.235 281.049 23.675C282.052 23.0917 282.845 22.2633 283.429 21.19C284.012 20.0933 284.304 18.8217 284.304 17.375ZM315.971 7.47C317.464 7.47 318.794 7.785 319.961 8.415C321.128 9.02167 322.049 9.94333 322.726 11.18C323.403 12.4167 323.741 13.9217 323.741 15.695V27H320.591V16.15C320.591 14.2367 320.113 12.7783 319.156 11.775C318.223 10.7483 316.951 10.235 315.341 10.235C313.684 10.235 312.366 10.7717 311.386 11.845C310.406 12.895 309.916 14.4233 309.916 16.43V27H306.766V16.15C306.766 14.2367 306.288 12.7783 305.331 11.775C304.398 10.7483 303.126 10.235 301.516 10.235C299.859 10.235 298.541 10.7717 297.561 11.845C296.581 12.895 296.091 14.4233 296.091 16.43V27H292.906V7.82H296.091V10.585C296.721 9.58167 297.561 8.81167 298.611 8.275C299.684 7.73833 300.863 7.47 302.146 7.47C303.756 7.47 305.179 7.83167 306.416 8.555C307.653 9.27833 308.574 10.34 309.181 11.74C309.718 10.3867 310.604 9.33667 311.841 8.59C313.078 7.84333 314.454 7.47 315.971 7.47ZM346.438 14.785C346.438 12.405 346.974 10.27 348.048 8.38C349.121 6.46667 350.579 4.97333 352.423 3.9C354.289 2.82667 356.354 2.29 358.618 2.29C361.278 2.29 363.599 2.93167 365.583 4.215C367.566 5.49833 369.013 7.31833 369.923 9.675H366.108C365.431 8.205 364.451 7.07333 363.168 6.28C361.908 5.48667 360.391 5.09 358.618 5.09C356.914 5.09 355.386 5.48667 354.033 6.28C352.679 7.07333 351.618 8.205 350.848 9.675C350.078 11.1217 349.693 12.825 349.693 14.785C349.693 16.7217 350.078 18.425 350.848 19.895C351.618 21.3417 352.679 22.4617 354.033 23.255C355.386 24.0483 356.914 24.445 358.618 24.445C360.391 24.445 361.908 24.06 363.168 23.29C364.451 22.4967 365.431 21.365 366.108 19.895H369.923C369.013 22.2283 367.566 24.0367 365.583 25.32C363.599 26.58 361.278 27.21 358.618 27.21C356.354 27.21 354.289 26.685 352.423 25.635C350.579 24.5617 349.121 23.08 348.048 21.19C346.974 19.3 346.438 17.165 346.438 14.785ZM384.184 7.47C385.63 7.47 386.937 7.785 388.104 8.415C389.27 9.02167 390.18 9.94333 390.834 11.18C391.51 12.4167 391.849 13.9217 391.849 15.695V27H388.699V16.15C388.699 14.2367 388.22 12.7783 387.264 11.775C386.307 10.7483 385 10.235 383.344 10.235C381.664 10.235 380.322 10.76 379.319 11.81C378.339 12.86 377.849 14.3883 377.849 16.395V27H374.664V1.1H377.849V10.55C378.479 9.57 379.342 8.81167 380.439 8.275C381.559 7.73833 382.807 7.47 384.184 7.47ZM398.696 4.705C398.09 4.705 397.576 4.495 397.156 4.075C396.736 3.655 396.526 3.14167 396.526 2.535C396.526 1.92833 396.736 1.415 397.156 0.994999C397.576 0.574999 398.09 0.364999 398.696 0.364999C399.28 0.364999 399.77 0.574999 400.166 0.994999C400.586 1.415 400.796 1.92833 400.796 2.535C400.796 3.14167 400.586 3.655 400.166 4.075C399.77 4.495 399.28 4.705 398.696 4.705ZM400.236 7.82V27H397.051V7.82H400.236ZM404.475 17.375C404.475 15.3917 404.871 13.665 405.665 12.195C406.458 10.7017 407.555 9.54667 408.955 8.73C410.378 7.91333 412 7.505 413.82 7.505C416.176 7.505 418.113 8.07667 419.63 9.22C421.17 10.3633 422.185 11.95 422.675 13.98H419.245C418.918 12.8133 418.276 11.8917 417.32 11.215C416.386 10.5383 415.22 10.2 413.82 10.2C412 10.2 410.53 10.83 409.41 12.09C408.29 13.3267 407.73 15.0883 407.73 17.375C407.73 19.685 408.29 21.47 409.41 22.73C410.53 23.99 412 24.62 413.82 24.62C415.22 24.62 416.386 24.2933 417.32 23.64C418.253 22.9867 418.895 22.0533 419.245 20.84H422.675C422.161 22.8 421.135 24.375 419.595 25.565C418.055 26.7317 416.13 27.315 413.82 27.315C412 27.315 410.378 26.9067 408.955 26.09C407.555 25.2733 406.458 24.1183 405.665 22.625C404.871 21.1317 404.475 19.3817 404.475 17.375ZM425.734 17.34C425.734 15.38 426.131 13.665 426.924 12.195C427.718 10.7017 428.803 9.54667 430.179 8.73C431.579 7.91333 433.131 7.505 434.834 7.505C436.514 7.505 437.973 7.86667 439.209 8.59C440.446 9.31333 441.368 10.2233 441.974 11.32V7.82H445.194V27H441.974V23.43C441.344 24.55 440.399 25.4833 439.139 26.23C437.903 26.9533 436.456 27.315 434.799 27.315C433.096 27.315 431.556 26.895 430.179 26.055C428.803 25.215 427.718 24.0367 426.924 22.52C426.131 21.0033 425.734 19.2767 425.734 17.34ZM441.974 17.375C441.974 15.9283 441.683 14.6683 441.099 13.595C440.516 12.5217 439.723 11.705 438.719 11.145C437.739 10.5617 436.654 10.27 435.464 10.27C434.274 10.27 433.189 10.55 432.209 11.11C431.229 11.67 430.448 12.4867 429.864 13.56C429.281 14.6333 428.989 15.8933 428.989 17.34C428.989 18.81 429.281 20.0933 429.864 21.19C430.448 22.2633 431.229 23.0917 432.209 23.675C433.189 24.235 434.274 24.515 435.464 24.515C436.654 24.515 437.739 24.235 438.719 23.675C439.723 23.0917 440.516 22.2633 441.099 21.19C441.683 20.0933 441.974 18.8217 441.974 17.375ZM458.487 7.505C460.144 7.505 461.59 7.86667 462.827 8.59C464.087 9.31333 465.02 10.2233 465.627 11.32V7.82H468.847V27.42C468.847 29.17 468.474 30.7217 467.727 32.075C466.98 33.4517 465.907 34.525 464.507 35.295C463.13 36.065 461.52 36.45 459.677 36.45C457.157 36.45 455.057 35.855 453.377 34.665C451.697 33.475 450.705 31.8533 450.402 29.8H453.552C453.902 30.9667 454.625 31.9 455.722 32.6C456.819 33.3233 458.137 33.685 459.677 33.685C461.427 33.685 462.85 33.1367 463.947 32.04C465.067 30.9433 465.627 29.4033 465.627 27.42V23.395C464.997 24.515 464.064 25.4483 462.827 26.195C461.59 26.9417 460.144 27.315 458.487 27.315C456.784 27.315 455.232 26.895 453.832 26.055C452.455 25.215 451.37 24.0367 450.577 22.52C449.784 21.0033 449.387 19.2767 449.387 17.34C449.387 15.38 449.784 13.665 450.577 12.195C451.37 10.7017 452.455 9.54667 453.832 8.73C455.232 7.91333 456.784 7.505 458.487 7.505ZM465.627 17.375C465.627 15.9283 465.335 14.6683 464.752 13.595C464.169 12.5217 463.375 11.705 462.372 11.145C461.392 10.5617 460.307 10.27 459.117 10.27C457.927 10.27 456.842 10.55 455.862 11.11C454.882 11.67 454.1 12.4867 453.517 13.56C452.934 14.6333 452.642 15.8933 452.642 17.34C452.642 18.81 452.934 20.0933 453.517 21.19C454.1 22.2633 454.882 23.0917 455.862 23.675C456.842 24.235 457.927 24.515 459.117 24.515C460.307 24.515 461.392 24.235 462.372 23.675C463.375 23.0917 464.169 22.2633 464.752 21.19C465.335 20.0933 465.627 18.8217 465.627 17.375ZM482.594 27.315C480.798 27.315 479.164 26.9067 477.694 26.09C476.248 25.2733 475.104 24.1183 474.264 22.625C473.448 21.1083 473.039 19.3583 473.039 17.375C473.039 15.415 473.459 13.6883 474.299 12.195C475.163 10.6783 476.329 9.52333 477.799 8.73C479.269 7.91333 480.914 7.505 482.734 7.505C484.554 7.505 486.199 7.91333 487.669 8.73C489.139 9.52333 490.294 10.6667 491.134 12.16C491.998 13.6533 492.429 15.3917 492.429 17.375C492.429 19.3583 491.986 21.1083 491.099 22.625C490.236 24.1183 489.058 25.2733 487.564 26.09C486.071 26.9067 484.414 27.315 482.594 27.315ZM482.594 24.515C483.738 24.515 484.811 24.2467 485.814 23.71C486.818 23.1733 487.623 22.3683 488.229 21.295C488.859 20.2217 489.174 18.915 489.174 17.375C489.174 15.835 488.871 14.5283 488.264 13.455C487.658 12.3817 486.864 11.5883 485.884 11.075C484.904 10.5383 483.843 10.27 482.699 10.27C481.533 10.27 480.459 10.5383 479.479 11.075C478.523 11.5883 477.753 12.3817 477.169 13.455C476.586 14.5283 476.294 15.835 476.294 17.375C476.294 18.9383 476.574 20.2567 477.134 21.33C477.718 22.4033 478.488 23.2083 479.444 23.745C480.401 24.2583 481.451 24.515 482.594 24.515ZM504.583 4.6V1.695H511.163V27H507.943V4.6H504.583ZM518.174 27.21C517.567 27.21 517.054 27 516.634 26.58C516.214 26.16 516.004 25.6467 516.004 25.04C516.004 24.4333 516.214 23.92 516.634 23.5C517.054 23.08 517.567 22.87 518.174 22.87C518.757 22.87 519.247 23.08 519.644 23.5C520.064 23.92 520.274 24.4333 520.274 25.04C520.274 25.6467 520.064 26.16 519.644 26.58C519.247 27 518.757 27.21 518.174 27.21ZM518.174 12.23C517.567 12.23 517.054 12.02 516.634 11.6C516.214 11.18 516.004 10.6667 516.004 10.06C516.004 9.45333 516.214 8.94 516.634 8.52C517.054 8.1 517.567 7.89 518.174 7.89C518.757 7.89 519.247 8.1 519.644 8.52C520.064 8.94 520.274 9.45333 520.274 10.06C520.274 10.6667 520.064 11.18 519.644 11.6C519.247 12.02 518.757 12.23 518.174 12.23ZM523.245 4.6V1.695H529.825V27H526.605V4.6H523.245ZM539.391 20.21C539.624 21.54 540.161 22.5667 541.001 23.29C541.864 24.0133 543.019 24.375 544.466 24.375C546.403 24.375 547.826 23.6167 548.736 22.1C549.669 20.5833 550.113 18.0283 550.066 14.435C549.576 15.485 548.759 16.3133 547.616 16.92C546.473 17.5033 545.201 17.795 543.801 17.795C542.238 17.795 540.838 17.48 539.601 16.85C538.388 16.1967 537.431 15.2517 536.731 14.015C536.031 12.7783 535.681 11.285 535.681 9.535C535.681 7.03833 536.404 5.03167 537.851 3.515C539.298 1.975 541.351 1.205 544.011 1.205C547.278 1.205 549.564 2.26667 550.871 4.39C552.201 6.51333 552.866 9.675 552.866 13.875C552.866 16.815 552.598 19.2417 552.061 21.155C551.548 23.0683 550.661 24.5267 549.401 25.53C548.164 26.5333 546.461 27.035 544.291 27.035C541.911 27.035 540.056 26.3933 538.726 25.11C537.396 23.8267 536.638 22.1933 536.451 20.21H539.391ZM544.326 15.1C545.889 15.1 547.173 14.6217 548.176 13.665C549.179 12.685 549.681 11.3667 549.681 9.71C549.681 7.96 549.191 6.54833 548.211 5.475C547.231 4.40167 545.854 3.865 544.081 3.865C542.448 3.865 541.141 4.37833 540.161 5.405C539.204 6.43167 538.726 7.785 538.726 9.465C538.726 11.1683 539.204 12.5333 540.161 13.56C541.118 14.5867 542.506 15.1 544.326 15.1ZM556.677 17.34C556.677 15.38 557.074 13.665 557.867 12.195C558.66 10.7017 559.745 9.54667 561.122 8.73C562.522 7.91333 564.074 7.505 565.777 7.505C567.457 7.505 568.915 7.86667 570.152 8.59C571.389 9.31333 572.31 10.2233 572.917 11.32V7.82H576.137V27H572.917V23.43C572.287 24.55 571.342 25.4833 570.082 26.23C568.845 26.9533 567.399 27.315 565.742 27.315C564.039 27.315 562.499 26.895 561.122 26.055C559.745 25.215 558.66 24.0367 557.867 22.52C557.074 21.0033 556.677 19.2767 556.677 17.34ZM572.917 17.375C572.917 15.9283 572.625 14.6683 572.042 13.595C571.459 12.5217 570.665 11.705 569.662 11.145C568.682 10.5617 567.597 10.27 566.407 10.27C565.217 10.27 564.132 10.55 563.152 11.11C562.172 11.67 561.39 12.4867 560.807 13.56C560.224 14.6333 559.932 15.8933 559.932 17.34C559.932 18.81 560.224 20.0933 560.807 21.19C561.39 22.2633 562.172 23.0917 563.152 23.675C564.132 24.235 565.217 24.515 566.407 24.515C567.597 24.515 568.682 24.235 569.662 23.675C570.665 23.0917 571.459 22.2633 572.042 21.19C572.625 20.0933 572.917 18.8217 572.917 17.375ZM604.584 7.47C606.078 7.47 607.408 7.785 608.574 8.415C609.741 9.02167 610.663 9.94333 611.339 11.18C612.016 12.4167 612.354 13.9217 612.354 15.695V27H609.204V16.15C609.204 14.2367 608.726 12.7783 607.769 11.775C606.836 10.7483 605.564 10.235 603.954 10.235C602.298 10.235 600.979 10.7717 599.999 11.845C599.019 12.895 598.529 14.4233 598.529 16.43V27H595.379V16.15C595.379 14.2367 594.901 12.7783 593.944 11.775C593.011 10.7483 591.739 10.235 590.129 10.235C588.473 10.235 587.154 10.7717 586.174 11.845C585.194 12.895 584.704 14.4233 584.704 16.43V27H581.519V7.82H584.704V10.585C585.334 9.58167 586.174 8.81167 587.224 8.275C588.298 7.73833 589.476 7.47 590.759 7.47C592.369 7.47 593.793 7.83167 595.029 8.555C596.266 9.27833 597.188 10.34 597.794 11.74C598.331 10.3867 599.218 9.33667 600.454 8.59C601.691 7.84333 603.068 7.47 604.584 7.47ZM635.051 14.785C635.051 12.405 635.588 10.27 636.661 8.38C637.734 6.46667 639.193 4.97333 641.036 3.9C642.903 2.82667 644.968 2.29 647.231 2.29C649.891 2.29 652.213 2.93167 654.196 4.215C656.179 5.49833 657.626 7.31833 658.536 9.675H654.721C654.044 8.205 653.064 7.07333 651.781 6.28C650.521 5.48667 649.004 5.09 647.231 5.09C645.528 5.09 643.999 5.48667 642.646 6.28C641.293 7.07333 640.231 8.205 639.461 9.675C638.691 11.1217 638.306 12.825 638.306 14.785C638.306 16.7217 638.691 18.425 639.461 19.895C640.231 21.3417 641.293 22.4617 642.646 23.255C643.999 24.0483 645.528 24.445 647.231 24.445C649.004 24.445 650.521 24.06 651.781 23.29C653.064 22.4967 654.044 21.365 654.721 19.895H658.536C657.626 22.2283 656.179 24.0367 654.196 25.32C652.213 26.58 649.891 27.21 647.231 27.21C644.968 27.21 642.903 26.685 641.036 25.635C639.193 24.5617 637.734 23.08 636.661 21.19C635.588 19.3 635.051 17.165 635.051 14.785ZM671.642 27.315C669.845 27.315 668.212 26.9067 666.742 26.09C665.295 25.2733 664.152 24.1183 663.312 22.625C662.495 21.1083 662.087 19.3583 662.087 17.375C662.087 15.415 662.507 13.6883 663.347 12.195C664.21 10.6783 665.377 9.52333 666.847 8.73C668.317 7.91333 669.962 7.505 671.782 7.505C673.602 7.505 675.247 7.91333 676.717 8.73C678.187 9.52333 679.342 10.6667 680.182 12.16C681.045 13.6533 681.477 15.3917 681.477 17.375C681.477 19.3583 681.034 21.1083 680.147 22.625C679.284 24.1183 678.105 25.2733 676.612 26.09C675.119 26.9067 673.462 27.315 671.642 27.315ZM671.642 24.515C672.785 24.515 673.859 24.2467 674.862 23.71C675.865 23.1733 676.67 22.3683 677.277 21.295C677.907 20.2217 678.222 18.915 678.222 17.375C678.222 15.835 677.919 14.5283 677.312 13.455C676.705 12.3817 675.912 11.5883 674.932 11.075C673.952 10.5383 672.89 10.27 671.747 10.27C670.58 10.27 669.507 10.5383 668.527 11.075C667.57 11.5883 666.8 12.3817 666.217 13.455C665.634 14.5283 665.342 15.835 665.342 17.375C665.342 18.9383 665.622 20.2567 666.182 21.33C666.765 22.4033 667.535 23.2083 668.492 23.745C669.449 24.2583 670.499 24.515 671.642 24.515ZM692.455 27.315C690.985 27.315 689.666 27.07 688.5 26.58C687.333 26.0667 686.411 25.3667 685.735 24.48C685.058 23.57 684.685 22.5317 684.615 21.365H687.905C687.998 22.3217 688.441 23.1033 689.235 23.71C690.051 24.3167 691.113 24.62 692.42 24.62C693.633 24.62 694.59 24.3517 695.29 23.815C695.99 23.2783 696.34 22.6017 696.34 21.785C696.34 20.945 695.966 20.3267 695.22 19.93C694.473 19.51 693.318 19.1017 691.755 18.705C690.331 18.3317 689.165 17.9583 688.255 17.585C687.368 17.1883 686.598 16.6167 685.945 15.87C685.315 15.1 685 14.0967 685 12.86C685 11.88 685.291 10.9817 685.875 10.165C686.458 9.34833 687.286 8.70667 688.36 8.24C689.433 7.75 690.658 7.505 692.035 7.505C694.158 7.505 695.873 8.04167 697.18 9.115C698.486 10.1883 699.186 11.6583 699.28 13.525H696.095C696.025 12.5217 695.616 11.7167 694.87 11.11C694.146 10.5033 693.166 10.2 691.93 10.2C690.786 10.2 689.876 10.445 689.2 10.935C688.523 11.425 688.185 12.0667 688.185 12.86C688.185 13.49 688.383 14.015 688.78 14.435C689.2 14.8317 689.713 15.1583 690.32 15.415C690.95 15.6483 691.813 15.9167 692.91 16.22C694.286 16.5933 695.406 16.9667 696.27 17.34C697.133 17.69 697.868 18.2267 698.475 18.95C699.105 19.6733 699.431 20.6183 699.455 21.785C699.455 22.835 699.163 23.78 698.58 24.62C697.996 25.46 697.168 26.125 696.095 26.615C695.045 27.0817 693.831 27.315 692.455 27.315ZM707.836 10.445V21.75C707.836 22.6833 708.034 23.3483 708.431 23.745C708.828 24.1183 709.516 24.305 710.496 24.305H712.841V27H709.971C708.198 27 706.868 26.5917 705.981 25.775C705.094 24.9583 704.651 23.6167 704.651 21.75V10.445H702.166V7.82H704.651V2.99H707.836V7.82H712.841V10.445H707.836ZM715.51 17.34C715.51 15.38 715.907 13.665 716.7 12.195C717.493 10.7017 718.578 9.54667 719.955 8.73C721.355 7.91333 722.907 7.505 724.61 7.505C726.29 7.505 727.748 7.86667 728.985 8.59C730.222 9.31333 731.143 10.2233 731.75 11.32V7.82H734.97V27H731.75V23.43C731.12 24.55 730.175 25.4833 728.915 26.23C727.678 26.9533 726.232 27.315 724.575 27.315C722.872 27.315 721.332 26.895 719.955 26.055C718.578 25.215 717.493 24.0367 716.7 22.52C715.907 21.0033 715.51 19.2767 715.51 17.34ZM731.75 17.375C731.75 15.9283 731.458 14.6683 730.875 13.595C730.292 12.5217 729.498 11.705 728.495 11.145C727.515 10.5617 726.43 10.27 725.24 10.27C724.05 10.27 722.965 10.55 721.985 11.11C721.005 11.67 720.223 12.4867 719.64 13.56C719.057 14.6333 718.765 15.8933 718.765 17.34C718.765 18.81 719.057 20.0933 719.64 21.19C720.223 22.2633 721.005 23.0917 721.985 23.675C722.965 24.235 724.05 24.515 725.24 24.515C726.43 24.515 727.515 24.235 728.495 23.675C729.498 23.0917 730.292 22.2633 730.875 21.19C731.458 20.0933 731.75 18.8217 731.75 17.375ZM762.528 27L756.718 17.025H752.868V27H749.683V2.605H757.558C759.402 2.605 760.953 2.92 762.213 3.55C763.497 4.18 764.453 5.03167 765.083 6.105C765.713 7.17833 766.028 8.40333 766.028 9.78C766.028 11.46 765.538 12.9417 764.558 14.225C763.602 15.5083 762.155 16.36 760.218 16.78L766.343 27H762.528ZM752.868 14.47H757.558C759.285 14.47 760.58 14.05 761.443 13.21C762.307 12.3467 762.738 11.2033 762.738 9.78C762.738 8.33333 762.307 7.21333 761.443 6.42C760.603 5.62667 759.308 5.23 757.558 5.23H752.868V14.47ZM772.622 4.705C772.016 4.705 771.502 4.495 771.082 4.075C770.662 3.655 770.452 3.14167 770.452 2.535C770.452 1.92833 770.662 1.415 771.082 0.994999C771.502 0.574999 772.016 0.364999 772.622 0.364999C773.206 0.364999 773.696 0.574999 774.092 0.994999C774.512 1.415 774.722 1.92833 774.722 2.535C774.722 3.14167 774.512 3.655 774.092 4.075C773.696 4.495 773.206 4.705 772.622 4.705ZM774.162 7.82V27H770.977V7.82H774.162ZM778.401 17.375C778.401 15.3917 778.797 13.665 779.591 12.195C780.384 10.7017 781.481 9.54667 782.881 8.73C784.304 7.91333 785.926 7.505 787.746 7.505C790.102 7.505 792.039 8.07667 793.556 9.22C795.096 10.3633 796.111 11.95 796.601 13.98H793.171C792.844 12.8133 792.202 11.8917 791.246 11.215C790.312 10.5383 789.146 10.2 787.746 10.2C785.926 10.2 784.456 10.83 783.336 12.09C782.216 13.3267 781.656 15.0883 781.656 17.375C781.656 19.685 782.216 21.47 783.336 22.73C784.456 23.99 785.926 24.62 787.746 24.62C789.146 24.62 790.312 24.2933 791.246 23.64C792.179 22.9867 792.821 22.0533 793.171 20.84H796.601C796.087 22.8 795.061 24.375 793.521 25.565C791.981 26.7317 790.056 27.315 787.746 27.315C785.926 27.315 784.304 26.9067 782.881 26.09C781.481 25.2733 780.384 24.1183 779.591 22.625C778.797 21.1317 778.401 19.3817 778.401 17.375ZM799.66 17.34C799.66 15.38 800.057 13.665 800.85 12.195C801.644 10.7017 802.729 9.54667 804.105 8.73C805.505 7.91333 807.057 7.505 808.76 7.505C810.44 7.505 811.899 7.86667 813.135 8.59C814.372 9.31333 815.294 10.2233 815.9 11.32V7.82H819.12V27H815.9V23.43C815.27 24.55 814.325 25.4833 813.065 26.23C811.829 26.9533 810.382 27.315 808.725 27.315C807.022 27.315 805.482 26.895 804.105 26.055C802.729 25.215 801.644 24.0367 800.85 22.52C800.057 21.0033 799.66 19.2767 799.66 17.34ZM815.9 17.375C815.9 15.9283 815.609 14.6683 815.025 13.595C814.442 12.5217 813.649 11.705 812.645 11.145C811.665 10.5617 810.58 10.27 809.39 10.27C808.2 10.27 807.115 10.55 806.135 11.11C805.155 11.67 804.374 12.4867 803.79 13.56C803.207 14.6333 802.915 15.8933 802.915 17.34C802.915 18.81 803.207 20.0933 803.79 21.19C804.374 22.2633 805.155 23.0917 806.135 23.675C807.115 24.235 808.2 24.515 809.39 24.515C810.58 24.515 811.665 24.235 812.645 23.675C813.649 23.0917 814.442 22.2633 815.025 21.19C815.609 20.0933 815.9 18.8217 815.9 17.375ZM832.469 4.6V1.695H839.049V27H835.829V4.6H832.469ZM844.135 24.445C847.098 22.065 849.42 20.1167 851.1 18.6C852.78 17.06 854.191 15.4617 855.335 13.805C856.501 12.125 857.085 10.48 857.085 8.87C857.085 7.35333 856.711 6.16333 855.965 5.3C855.241 4.41333 854.063 3.97 852.43 3.97C850.843 3.97 849.606 4.47167 848.72 5.475C847.856 6.455 847.39 7.77333 847.32 9.43H844.24C844.333 6.81667 845.126 4.79833 846.62 3.375C848.113 1.95167 850.038 1.24 852.395 1.24C854.798 1.24 856.7 1.905 858.1 3.235C859.523 4.565 860.235 6.39667 860.235 8.73C860.235 10.6667 859.651 12.5567 858.485 14.4C857.341 16.22 856.035 17.83 854.565 19.23C853.095 20.6067 851.216 22.2167 848.93 24.06H860.97V26.72H844.135V24.445ZM866.191 27.21C865.585 27.21 865.071 27 864.651 26.58C864.231 26.16 864.021 25.6467 864.021 25.04C864.021 24.4333 864.231 23.92 864.651 23.5C865.071 23.08 865.585 22.87 866.191 22.87C866.775 22.87 867.265 23.08 867.661 23.5C868.081 23.92 868.291 24.4333 868.291 25.04C868.291 25.6467 868.081 26.16 867.661 26.58C867.265 27 866.775 27.21 866.191 27.21ZM866.191 12.23C865.585 12.23 865.071 12.02 864.651 11.6C864.231 11.18 864.021 10.6667 864.021 10.06C864.021 9.45333 864.231 8.94 864.651 8.52C865.071 8.1 865.585 7.89 866.191 7.89C866.775 7.89 867.265 8.1 867.661 8.52C868.081 8.94 868.291 9.45333 868.291 10.06C868.291 10.6667 868.081 11.18 867.661 11.6C867.265 12.02 866.775 12.23 866.191 12.23ZM871.263 4.6V1.695H877.843V27H874.623V4.6H871.263ZM887.409 20.21C887.642 21.54 888.179 22.5667 889.019 23.29C889.882 24.0133 891.037 24.375 892.484 24.375C894.42 24.375 895.844 23.6167 896.754 22.1C897.687 20.5833 898.13 18.0283 898.084 14.435C897.594 15.485 896.777 16.3133 895.634 16.92C894.49 17.5033 893.219 17.795 891.819 17.795C890.255 17.795 888.855 17.48 887.619 16.85C886.405 16.1967 885.449 15.2517 884.749 14.015C884.049 12.7783 883.699 11.285 883.699 9.535C883.699 7.03833 884.422 5.03167 885.869 3.515C887.315 1.975 889.369 1.205 892.029 1.205C895.295 1.205 897.582 2.26667 898.889 4.39C900.219 6.51333 900.884 9.675 900.884 13.875C900.884 16.815 900.615 19.2417 900.079 21.155C899.565 23.0683 898.679 24.5267 897.419 25.53C896.182 26.5333 894.479 27.035 892.309 27.035C889.929 27.035 888.074 26.3933 886.744 25.11C885.414 23.8267 884.655 22.1933 884.469 20.21H887.409ZM892.344 15.1C893.907 15.1 895.19 14.6217 896.194 13.665C897.197 12.685 897.699 11.3667 897.699 9.71C897.699 7.96 897.209 6.54833 896.229 5.475C895.249 4.40167 893.872 3.865 892.099 3.865C890.465 3.865 889.159 4.37833 888.179 5.405C887.222 6.43167 886.744 7.785 886.744 9.465C886.744 11.1683 887.222 12.5333 888.179 13.56C889.135 14.5867 890.524 15.1 892.344 15.1ZM904.694 17.34C904.694 15.38 905.091 13.665 905.884 12.195C906.678 10.7017 907.763 9.54667 909.139 8.73C910.539 7.91333 912.091 7.505 913.794 7.505C915.474 7.505 916.933 7.86667 918.169 8.59C919.406 9.31333 920.328 10.2233 920.934 11.32V7.82H924.154V27H920.934V23.43C920.304 24.55 919.359 25.4833 918.099 26.23C916.863 26.9533 915.416 27.315 913.759 27.315C912.056 27.315 910.516 26.895 909.139 26.055C907.763 25.215 906.678 24.0367 905.884 22.52C905.091 21.0033 904.694 19.2767 904.694 17.34ZM920.934 17.375C920.934 15.9283 920.643 14.6683 920.059 13.595C919.476 12.5217 918.683 11.705 917.679 11.145C916.699 10.5617 915.614 10.27 914.424 10.27C913.234 10.27 912.149 10.55 911.169 11.11C910.189 11.67 909.408 12.4867 908.824 13.56C908.241 14.6333 907.949 15.8933 907.949 17.34C907.949 18.81 908.241 20.0933 908.824 21.19C909.408 22.2633 910.189 23.0917 911.169 23.675C912.149 24.235 913.234 24.515 914.424 24.515C915.614 24.515 916.699 24.235 917.679 23.675C918.683 23.0917 919.476 22.2633 920.059 21.19C920.643 20.0933 920.934 18.8217 920.934 17.375ZM952.602 7.47C954.095 7.47 955.425 7.785 956.592 8.415C957.758 9.02167 958.68 9.94333 959.357 11.18C960.033 12.4167 960.372 13.9217 960.372 15.695V27H957.222V16.15C957.222 14.2367 956.743 12.7783 955.787 11.775C954.853 10.7483 953.582 10.235 951.972 10.235C950.315 10.235 948.997 10.7717 948.017 11.845C947.037 12.895 946.547 14.4233 946.547 16.43V27H943.397V16.15C943.397 14.2367 942.918 12.7783 941.962 11.775C941.028 10.7483 939.757 10.235 938.147 10.235C936.49 10.235 935.172 10.7717 934.192 11.845C933.212 12.895 932.722 14.4233 932.722 16.43V27H929.537V7.82H932.722V10.585C933.352 9.58167 934.192 8.81167 935.242 8.275C936.315 7.73833 937.493 7.47 938.777 7.47C940.387 7.47 941.81 7.83167 943.047 8.555C944.283 9.27833 945.205 10.34 945.812 11.74C946.348 10.3867 947.235 9.33667 948.472 8.59C949.708 7.84333 951.085 7.47 952.602 7.47ZM1009 2.78V27H1005.82V8.94L997.768 27H995.528L987.443 8.905V27H984.258V2.78H987.688L996.648 22.8L1005.61 2.78H1009ZM1013.21 17.34C1013.21 15.38 1013.61 13.665 1014.4 12.195C1015.2 10.7017 1016.28 9.54667 1017.66 8.73C1019.06 7.91333 1020.61 7.505 1022.31 7.505C1023.99 7.505 1025.45 7.86667 1026.69 8.59C1027.93 9.31333 1028.85 10.2233 1029.45 11.32V7.82H1032.67V27H1029.45V23.43C1028.82 24.55 1027.88 25.4833 1026.62 26.23C1025.38 26.9533 1023.94 27.315 1022.28 27.315C1020.58 27.315 1019.04 26.895 1017.66 26.055C1016.28 25.215 1015.2 24.0367 1014.4 22.52C1013.61 21.0033 1013.21 19.2767 1013.21 17.34ZM1029.45 17.375C1029.45 15.9283 1029.16 14.6683 1028.58 13.595C1028 12.5217 1027.2 11.705 1026.2 11.145C1025.22 10.5617 1024.13 10.27 1022.94 10.27C1021.75 10.27 1020.67 10.55 1019.69 11.11C1018.71 11.67 1017.93 12.4867 1017.34 13.56C1016.76 14.6333 1016.47 15.8933 1016.47 17.34C1016.47 18.81 1016.76 20.0933 1017.34 21.19C1017.93 22.2633 1018.71 23.0917 1019.69 23.675C1020.67 24.235 1021.75 24.515 1022.94 24.515C1024.13 24.515 1025.22 24.235 1026.2 23.675C1027.2 23.0917 1028 22.2633 1028.58 21.19C1029.16 20.0933 1029.45 18.8217 1029.45 17.375ZM1041.24 1.1V27H1038.06V1.1H1041.24ZM1045.48 17.34C1045.48 15.38 1045.88 13.665 1046.67 12.195C1047.46 10.7017 1048.55 9.54667 1049.93 8.73C1051.33 7.91333 1052.88 7.505 1054.58 7.505C1056.26 7.505 1057.72 7.86667 1058.96 8.59C1060.19 9.31333 1061.11 10.2233 1061.72 11.32V7.82H1064.94V27H1061.72V23.43C1061.09 24.55 1060.15 25.4833 1058.89 26.23C1057.65 26.9533 1056.2 27.315 1054.55 27.315C1052.84 27.315 1051.3 26.895 1049.93 26.055C1048.55 25.215 1047.46 24.0367 1046.67 22.52C1045.88 21.0033 1045.48 19.2767 1045.48 17.34ZM1061.72 17.375C1061.72 15.9283 1061.43 14.6683 1060.85 13.595C1060.26 12.5217 1059.47 11.705 1058.47 11.145C1057.49 10.5617 1056.4 10.27 1055.21 10.27C1054.02 10.27 1052.94 10.55 1051.96 11.11C1050.98 11.67 1050.19 12.4867 1049.61 13.56C1049.03 14.6333 1048.74 15.8933 1048.74 17.34C1048.74 18.81 1049.03 20.0933 1049.61 21.19C1050.19 22.2633 1050.98 23.0917 1051.96 23.675C1052.94 24.235 1054.02 24.515 1055.21 24.515C1056.4 24.515 1057.49 24.235 1058.47 23.675C1059.47 23.0917 1060.26 22.2633 1060.85 21.19C1061.43 20.0933 1061.72 18.8217 1061.72 17.375ZM1086.84 7.82L1075.29 36.03H1072L1075.78 26.79L1068.05 7.82H1071.58L1077.6 23.36L1083.55 7.82H1086.84ZM1096.83 27.315C1095.36 27.315 1094.05 27.07 1092.88 26.58C1091.71 26.0667 1090.79 25.3667 1090.11 24.48C1089.44 23.57 1089.06 22.5317 1088.99 21.365H1092.28C1092.38 22.3217 1092.82 23.1033 1093.61 23.71C1094.43 24.3167 1095.49 24.62 1096.8 24.62C1098.01 24.62 1098.97 24.3517 1099.67 23.815C1100.37 23.2783 1100.72 22.6017 1100.72 21.785C1100.72 20.945 1100.35 20.3267 1099.6 19.93C1098.85 19.51 1097.7 19.1017 1096.13 18.705C1094.71 18.3317 1093.54 17.9583 1092.63 17.585C1091.75 17.1883 1090.98 16.6167 1090.32 15.87C1089.69 15.1 1089.38 14.0967 1089.38 12.86C1089.38 11.88 1089.67 10.9817 1090.25 10.165C1090.84 9.34833 1091.67 8.70667 1092.74 8.24C1093.81 7.75 1095.04 7.505 1096.41 7.505C1098.54 7.505 1100.25 8.04167 1101.56 9.115C1102.87 10.1883 1103.57 11.6583 1103.66 13.525H1100.47C1100.4 12.5217 1100 11.7167 1099.25 11.11C1098.53 10.5033 1097.55 10.2 1096.31 10.2C1095.17 10.2 1094.26 10.445 1093.58 10.935C1092.9 11.425 1092.56 12.0667 1092.56 12.86C1092.56 13.49 1092.76 14.015 1093.16 14.435C1093.58 14.8317 1094.09 15.1583 1094.7 15.415C1095.33 15.6483 1096.19 15.9167 1097.29 16.22C1098.67 16.5933 1099.79 16.9667 1100.65 17.34C1101.51 17.69 1102.25 18.2267 1102.85 18.95C1103.48 19.6733 1103.81 20.6183 1103.83 21.785C1103.83 22.835 1103.54 23.78 1102.96 24.62C1102.38 25.46 1101.55 26.125 1100.47 26.615C1099.42 27.0817 1098.21 27.315 1096.83 27.315ZM1109.98 4.705C1109.37 4.705 1108.86 4.495 1108.44 4.075C1108.02 3.655 1107.81 3.14167 1107.81 2.535C1107.81 1.92833 1108.02 1.415 1108.44 0.994999C1108.86 0.574999 1109.37 0.364999 1109.98 0.364999C1110.56 0.364999 1111.05 0.574999 1111.45 0.994999C1111.87 1.415 1112.08 1.92833 1112.08 2.535C1112.08 3.14167 1111.87 3.655 1111.45 4.075C1111.05 4.495 1110.56 4.705 1109.98 4.705ZM1111.52 7.82V27H1108.33V7.82H1111.52ZM1115.75 17.34C1115.75 15.38 1116.15 13.665 1116.94 12.195C1117.74 10.7017 1118.82 9.54667 1120.2 8.73C1121.6 7.91333 1123.15 7.505 1124.85 7.505C1126.53 7.505 1127.99 7.86667 1129.23 8.59C1130.47 9.31333 1131.39 10.2233 1131.99 11.32V7.82H1135.21V27H1131.99V23.43C1131.36 24.55 1130.42 25.4833 1129.16 26.23C1127.92 26.9533 1126.48 27.315 1124.82 27.315C1123.12 27.315 1121.58 26.895 1120.2 26.055C1118.82 25.215 1117.74 24.0367 1116.94 22.52C1116.15 21.0033 1115.75 19.2767 1115.75 17.34ZM1131.99 17.375C1131.99 15.9283 1131.7 14.6683 1131.12 13.595C1130.54 12.5217 1129.74 11.705 1128.74 11.145C1127.76 10.5617 1126.67 10.27 1125.48 10.27C1124.29 10.27 1123.21 10.55 1122.23 11.11C1121.25 11.67 1120.47 12.4867 1119.88 13.56C1119.3 14.6333 1119.01 15.8933 1119.01 17.34C1119.01 18.81 1119.3 20.0933 1119.88 21.19C1120.47 22.2633 1121.25 23.0917 1122.23 23.675C1123.21 24.235 1124.29 24.515 1125.48 24.515C1126.67 24.515 1127.76 24.235 1128.74 23.675C1129.74 23.0917 1130.54 22.2633 1131.12 21.19C1131.7 20.0933 1131.99 18.8217 1131.99 17.375ZM1149.02 24.445C1151.98 22.065 1154.3 20.1167 1155.98 18.6C1157.66 17.06 1159.07 15.4617 1160.22 13.805C1161.38 12.125 1161.97 10.48 1161.97 8.87C1161.97 7.35333 1161.59 6.16333 1160.85 5.3C1160.12 4.41333 1158.95 3.97 1157.31 3.97C1155.73 3.97 1154.49 4.47167 1153.6 5.475C1152.74 6.455 1152.27 7.77333 1152.2 9.43H1149.12C1149.22 6.81667 1150.01 4.79833 1151.5 3.375C1153 1.95167 1154.92 1.24 1157.28 1.24C1159.68 1.24 1161.58 1.905 1162.98 3.235C1164.41 4.565 1165.12 6.39667 1165.12 8.73C1165.12 10.6667 1164.53 12.5567 1163.37 14.4C1162.22 16.22 1160.92 17.83 1159.45 19.23C1157.98 20.6067 1156.1 22.2167 1153.81 24.06H1165.85V26.72H1149.02V24.445ZM1171.07 27.21C1170.47 27.21 1169.95 27 1169.53 26.58C1169.11 26.16 1168.9 25.6467 1168.9 25.04C1168.9 24.4333 1169.11 23.92 1169.53 23.5C1169.95 23.08 1170.47 22.87 1171.07 22.87C1171.66 22.87 1172.15 23.08 1172.54 23.5C1172.96 23.92 1173.17 24.4333 1173.17 25.04C1173.17 25.6467 1172.96 26.16 1172.54 26.58C1172.15 27 1171.66 27.21 1171.07 27.21ZM1171.07 12.23C1170.47 12.23 1169.95 12.02 1169.53 11.6C1169.11 11.18 1168.9 10.6667 1168.9 10.06C1168.9 9.45333 1169.11 8.94 1169.53 8.52C1169.95 8.1 1170.47 7.89 1171.07 7.89C1171.66 7.89 1172.15 8.1 1172.54 8.52C1172.96 8.94 1173.17 9.45333 1173.17 10.06C1173.17 10.6667 1172.96 11.18 1172.54 11.6C1172.15 12.02 1171.66 12.23 1171.07 12.23ZM1176.15 4.6V1.695H1182.73V27H1179.51V4.6H1176.15ZM1192.29 20.21C1192.52 21.54 1193.06 22.5667 1193.9 23.29C1194.76 24.0133 1195.92 24.375 1197.37 24.375C1199.3 24.375 1200.73 23.6167 1201.64 22.1C1202.57 20.5833 1203.01 18.0283 1202.97 14.435C1202.48 15.485 1201.66 16.3133 1200.52 16.92C1199.37 17.5033 1198.1 17.795 1196.7 17.795C1195.14 17.795 1193.74 17.48 1192.5 16.85C1191.29 16.1967 1190.33 15.2517 1189.63 14.015C1188.93 12.7783 1188.58 11.285 1188.58 9.535C1188.58 7.03833 1189.3 5.03167 1190.75 3.515C1192.2 1.975 1194.25 1.205 1196.91 1.205C1200.18 1.205 1202.46 2.26667 1203.77 4.39C1205.1 6.51333 1205.77 9.675 1205.77 13.875C1205.77 16.815 1205.5 19.2417 1204.96 21.155C1204.45 23.0683 1203.56 24.5267 1202.3 25.53C1201.06 26.5333 1199.36 27.035 1197.19 27.035C1194.81 27.035 1192.96 26.3933 1191.63 25.11C1190.3 23.8267 1189.54 22.1933 1189.35 20.21H1192.29ZM1197.23 15.1C1198.79 15.1 1200.07 14.6217 1201.08 13.665C1202.08 12.685 1202.58 11.3667 1202.58 9.71C1202.58 7.96 1202.09 6.54833 1201.11 5.475C1200.13 4.40167 1198.75 3.865 1196.98 3.865C1195.35 3.865 1194.04 4.37833 1193.06 5.405C1192.1 6.43167 1191.63 7.785 1191.63 9.465C1191.63 11.1683 1192.1 12.5333 1193.06 13.56C1194.02 14.5867 1195.41 15.1 1197.23 15.1ZM1213.95 11.355C1214.58 10.2583 1215.52 9.34833 1216.75 8.625C1218.01 7.87833 1219.47 7.505 1221.13 7.505C1222.83 7.505 1224.37 7.91333 1225.75 8.73C1227.15 9.54667 1228.24 10.7017 1229.04 12.195C1229.83 13.665 1230.23 15.38 1230.23 17.34C1230.23 19.2767 1229.83 21.0033 1229.04 22.52C1228.24 24.0367 1227.15 25.215 1225.75 26.055C1224.37 26.895 1222.83 27.315 1221.13 27.315C1219.49 27.315 1218.05 26.9533 1216.79 26.23C1215.55 25.4833 1214.61 24.5617 1213.95 23.465V36.1H1210.77V7.82H1213.95V11.355ZM1226.97 17.34C1226.97 15.8933 1226.68 14.6333 1226.1 13.56C1225.51 12.4867 1224.72 11.67 1223.72 11.11C1222.74 10.55 1221.65 10.27 1220.46 10.27C1219.3 10.27 1218.21 10.5617 1217.21 11.145C1216.23 11.705 1215.43 12.5333 1214.83 13.63C1214.24 14.7033 1213.95 15.9517 1213.95 17.375C1213.95 18.8217 1214.24 20.0933 1214.83 21.19C1215.43 22.2633 1216.23 23.0917 1217.21 23.675C1218.21 24.235 1219.3 24.515 1220.46 24.515C1221.65 24.515 1222.74 24.235 1223.72 23.675C1224.72 23.0917 1225.51 22.2633 1226.1 21.19C1226.68 20.0933 1226.97 18.81 1226.97 17.34ZM1257.48 7.47C1258.98 7.47 1260.31 7.785 1261.47 8.415C1262.64 9.02167 1263.56 9.94333 1264.24 11.18C1264.92 12.4167 1265.25 13.9217 1265.25 15.695V27H1262.1V16.15C1262.1 14.2367 1261.63 12.7783 1260.67 11.775C1259.74 10.7483 1258.46 10.235 1256.85 10.235C1255.2 10.235 1253.88 10.7717 1252.9 11.845C1251.92 12.895 1251.43 14.4233 1251.43 16.43V27H1248.28V16.15C1248.28 14.2367 1247.8 12.7783 1246.84 11.775C1245.91 10.7483 1244.64 10.235 1243.03 10.235C1241.37 10.235 1240.05 10.7717 1239.07 11.845C1238.09 12.895 1237.6 14.4233 1237.6 16.43V27H1234.42V7.82H1237.6V10.585C1238.23 9.58167 1239.07 8.81167 1240.12 8.275C1241.2 7.73833 1242.38 7.47 1243.66 7.47C1245.27 7.47 1246.69 7.83167 1247.93 8.555C1249.17 9.27833 1250.09 10.34 1250.69 11.74C1251.23 10.3867 1252.12 9.33667 1253.35 8.59C1254.59 7.84333 1255.97 7.47 1257.48 7.47ZM1308.32 27H1305.14L1292.33 7.575V27H1289.14V2.57H1292.33L1305.14 21.96V2.57H1308.32V27ZM1331.25 16.675C1331.25 17.2817 1331.22 17.9233 1331.15 18.6H1315.82C1315.93 20.49 1316.57 21.9717 1317.74 23.045C1318.93 24.095 1320.37 24.62 1322.05 24.62C1323.42 24.62 1324.57 24.305 1325.48 23.675C1326.41 23.0217 1327.06 22.1583 1327.44 21.085H1330.87C1330.35 22.9283 1329.33 24.4333 1327.79 25.6C1326.25 26.7433 1324.33 27.315 1322.05 27.315C1320.23 27.315 1318.59 26.9067 1317.15 26.09C1315.72 25.2733 1314.6 24.1183 1313.79 22.625C1312.97 21.1083 1312.56 19.3583 1312.56 17.375C1312.56 15.3917 1312.96 13.6533 1313.75 12.16C1314.54 10.6667 1315.65 9.52333 1317.08 8.73C1318.52 7.91333 1320.18 7.505 1322.05 7.505C1323.87 7.505 1325.48 7.90167 1326.88 8.695C1328.28 9.48833 1329.35 10.585 1330.1 11.985C1330.87 13.3617 1331.25 14.925 1331.25 16.675ZM1327.96 16.01C1327.96 14.7967 1327.69 13.7583 1327.16 12.895C1326.62 12.0083 1325.88 11.3433 1324.95 10.9C1324.04 10.4333 1323.03 10.2 1321.91 10.2C1320.3 10.2 1318.92 10.7133 1317.78 11.74C1316.66 12.7667 1316.01 14.19 1315.85 16.01H1327.96ZM1361 7.82L1355.02 27H1351.73L1347.11 11.775L1342.49 27H1339.2L1333.18 7.82H1336.43L1340.84 23.92L1345.6 7.82H1348.86L1353.51 23.955L1357.85 7.82H1361ZM1390.58 2.605L1382.63 17.795V27H1379.45V17.795L1371.47 2.605H1375L1381.02 14.96L1387.04 2.605H1390.58ZM1402.3 27.315C1400.5 27.315 1398.87 26.9067 1397.4 26.09C1395.95 25.2733 1394.81 24.1183 1393.97 22.625C1393.15 21.1083 1392.75 19.3583 1392.75 17.375C1392.75 15.415 1393.17 13.6883 1394.01 12.195C1394.87 10.6783 1396.04 9.52333 1397.51 8.73C1398.98 7.91333 1400.62 7.505 1402.44 7.505C1404.26 7.505 1405.91 7.91333 1407.38 8.73C1408.85 9.52333 1410 10.6667 1410.84 12.16C1411.7 13.6533 1412.14 15.3917 1412.14 17.375C1412.14 19.3583 1411.69 21.1083 1410.81 22.625C1409.94 24.1183 1408.76 25.2733 1407.27 26.09C1405.78 26.9067 1404.12 27.315 1402.3 27.315ZM1402.3 24.515C1403.44 24.515 1404.52 24.2467 1405.52 23.71C1406.52 23.1733 1407.33 22.3683 1407.94 21.295C1408.57 20.2217 1408.88 18.915 1408.88 17.375C1408.88 15.835 1408.58 14.5283 1407.97 13.455C1407.36 12.3817 1406.57 11.5883 1405.59 11.075C1404.61 10.5383 1403.55 10.27 1402.41 10.27C1401.24 10.27 1400.17 10.5383 1399.19 11.075C1398.23 11.5883 1397.46 12.3817 1396.88 13.455C1396.29 14.5283 1396 15.835 1396 17.375C1396 18.9383 1396.28 20.2567 1396.84 21.33C1397.42 22.4033 1398.19 23.2083 1399.15 23.745C1400.11 24.2583 1401.16 24.515 1402.3 24.515ZM1419.51 10.935C1420.07 9.83833 1420.86 8.98667 1421.89 8.38C1422.94 7.77333 1424.21 7.47 1425.7 7.47V10.76H1424.86C1421.29 10.76 1419.51 12.6967 1419.51 16.57V27H1416.32V7.82H1419.51V10.935ZM1440.09 27L1432.57 18.53V27H1429.38V1.1H1432.57V16.325L1439.95 7.82H1444.4L1435.37 17.375L1444.43 27H1440.09ZM16.71 83.605V86.195H10.06V108H6.875V86.195H0.19V83.605H16.71ZM28.9955 108.315C27.1989 108.315 25.5655 107.907 24.0955 107.09C22.6489 106.273 21.5055 105.118 20.6655 103.625C19.8489 102.108 19.4405 100.358 19.4405 98.375C19.4405 96.415 19.8605 94.6883 20.7005 93.195C21.5639 91.6783 22.7305 90.5233 24.2005 89.73C25.6705 88.9133 27.3155 88.505 29.1355 88.505C30.9555 88.505 32.6005 88.9133 34.0705 89.73C35.5405 90.5233 36.6955 91.6667 37.5355 93.16C38.3989 94.6533 38.8305 96.3917 38.8305 98.375C38.8305 100.358 38.3872 102.108 37.5005 103.625C36.6372 105.118 35.4589 106.273 33.9655 107.09C32.4722 107.907 30.8155 108.315 28.9955 108.315ZM28.9955 105.515C30.1389 105.515 31.2122 105.247 32.2155 104.71C33.2189 104.173 34.0239 103.368 34.6305 102.295C35.2605 101.222 35.5755 99.915 35.5755 98.375C35.5755 96.835 35.2722 95.5283 34.6655 94.455C34.0589 93.3817 33.2655 92.5883 32.2855 92.075C31.3055 91.5383 30.2439 91.27 29.1005 91.27C27.9339 91.27 26.8605 91.5383 25.8805 92.075C24.9239 92.5883 24.1539 93.3817 23.5705 94.455C22.9872 95.5283 22.6955 96.835 22.6955 98.375C22.6955 99.9383 22.9755 101.257 23.5355 102.33C24.1189 103.403 24.8889 104.208 25.8455 104.745C26.8022 105.258 27.8522 105.515 28.9955 105.515ZM46.2032 91.935C46.7632 90.8383 47.5566 89.9867 48.5832 89.38C49.6332 88.7733 50.9049 88.47 52.3982 88.47V91.76H51.5582C47.9882 91.76 46.2032 93.6967 46.2032 97.57V108H43.0182V88.82H46.2032V91.935ZM64.4399 108.315C62.6432 108.315 61.0099 107.907 59.5399 107.09C58.0932 106.273 56.9499 105.118 56.1099 103.625C55.2932 102.108 54.8849 100.358 54.8849 98.375C54.8849 96.415 55.3049 94.6883 56.1449 93.195C57.0082 91.6783 58.1749 90.5233 59.6449 89.73C61.1149 88.9133 62.7599 88.505 64.5799 88.505C66.3999 88.505 68.0449 88.9133 69.5149 89.73C70.9849 90.5233 72.1399 91.6667 72.9799 93.16C73.8432 94.6533 74.2749 96.3917 74.2749 98.375C74.2749 100.358 73.8315 102.108 72.9449 103.625C72.0816 105.118 70.9032 106.273 69.4099 107.09C67.9166 107.907 66.2599 108.315 64.4399 108.315ZM64.4399 105.515C65.5832 105.515 66.6565 105.247 67.6599 104.71C68.6632 104.173 69.4682 103.368 70.0749 102.295C70.7049 101.222 71.0199 99.915 71.0199 98.375C71.0199 96.835 70.7165 95.5283 70.1099 94.455C69.5032 93.3817 68.7099 92.5883 67.7299 92.075C66.7499 91.5383 65.6882 91.27 64.5449 91.27C63.3782 91.27 62.3049 91.5383 61.3249 92.075C60.3682 92.5883 59.5982 93.3817 59.0149 94.455C58.4315 95.5283 58.1399 96.835 58.1399 98.375C58.1399 99.9383 58.4199 101.257 58.9799 102.33C59.5632 103.403 60.3332 104.208 61.2899 104.745C62.2466 105.258 63.2966 105.515 64.4399 105.515ZM87.8076 88.47C90.1409 88.47 92.0309 89.1817 93.4776 90.605C94.9242 92.005 95.6476 94.035 95.6476 96.695V108H92.4976V97.15C92.4976 95.2367 92.0192 93.7783 91.0626 92.775C90.1059 91.7483 88.7992 91.235 87.1426 91.235C85.4626 91.235 84.1209 91.76 83.1176 92.81C82.1376 93.86 81.6476 95.3883 81.6476 97.395V108H78.4626V88.82H81.6476V91.55C82.2776 90.57 83.1292 89.8117 84.2026 89.275C85.2992 88.7383 86.5009 88.47 87.8076 88.47ZM104.735 91.445V102.75C104.735 103.683 104.934 104.348 105.33 104.745C105.727 105.118 106.415 105.305 107.395 105.305H109.74V108H106.87C105.097 108 103.767 107.592 102.88 106.775C101.994 105.958 101.55 104.617 101.55 102.75V91.445H99.0653V88.82H101.55V83.99H104.735V88.82H109.74V91.445H104.735ZM121.964 108.315C120.168 108.315 118.534 107.907 117.064 107.09C115.618 106.273 114.474 105.118 113.634 103.625C112.818 102.108 112.409 100.358 112.409 98.375C112.409 96.415 112.829 94.6883 113.669 93.195C114.533 91.6783 115.699 90.5233 117.169 89.73C118.639 88.9133 120.284 88.505 122.104 88.505C123.924 88.505 125.569 88.9133 127.039 89.73C128.509 90.5233 129.664 91.6667 130.504 93.16C131.368 94.6533 131.799 96.3917 131.799 98.375C131.799 100.358 131.356 102.108 130.469 103.625C129.606 105.118 128.428 106.273 126.934 107.09C125.441 107.907 123.784 108.315 121.964 108.315ZM121.964 105.515C123.108 105.515 124.181 105.247 125.184 104.71C126.188 104.173 126.993 103.368 127.599 102.295C128.229 101.222 128.544 99.915 128.544 98.375C128.544 96.835 128.241 95.5283 127.634 94.455C127.028 93.3817 126.234 92.5883 125.254 92.075C124.274 91.5383 123.213 91.27 122.069 91.27C120.903 91.27 119.829 91.5383 118.849 92.075C117.893 92.5883 117.123 93.3817 116.539 94.455C115.956 95.5283 115.664 96.835 115.664 98.375C115.664 99.9383 115.944 101.257 116.504 102.33C117.088 103.403 117.858 104.208 118.814 104.745C119.771 105.258 120.821 105.515 121.964 105.515ZM144.408 105.445C147.371 103.065 149.693 101.117 151.373 99.6C153.053 98.06 154.465 96.4617 155.608 94.805C156.775 93.125 157.358 91.48 157.358 89.87C157.358 88.3533 156.985 87.1633 156.238 86.3C155.515 85.4133 154.336 84.97 152.703 84.97C151.116 84.97 149.88 85.4717 148.993 86.475C148.13 87.455 147.663 88.7733 147.593 90.43H144.513C144.606 87.8167 145.4 85.7983 146.893 84.375C148.386 82.9517 150.311 82.24 152.668 82.24C155.071 82.24 156.973 82.905 158.373 84.235C159.796 85.565 160.508 87.3967 160.508 89.73C160.508 91.6667 159.925 93.5567 158.758 95.4C157.615 97.22 156.308 98.83 154.838 100.23C153.368 101.607 151.49 103.217 149.203 105.06H161.243V107.72H144.408V105.445ZM166.465 108.21C165.858 108.21 165.345 108 164.925 107.58C164.505 107.16 164.295 106.647 164.295 106.04C164.295 105.433 164.505 104.92 164.925 104.5C165.345 104.08 165.858 103.87 166.465 103.87C167.048 103.87 167.538 104.08 167.935 104.5C168.355 104.92 168.565 105.433 168.565 106.04C168.565 106.647 168.355 107.16 167.935 107.58C167.538 108 167.048 108.21 166.465 108.21ZM166.465 93.23C165.858 93.23 165.345 93.02 164.925 92.6C164.505 92.18 164.295 91.6667 164.295 91.06C164.295 90.4533 164.505 89.94 164.925 89.52C165.345 89.1 165.858 88.89 166.465 88.89C167.048 88.89 167.538 89.1 167.935 89.52C168.355 89.94 168.565 90.4533 168.565 91.06C168.565 91.6667 168.355 92.18 167.935 92.6C167.538 93.02 167.048 93.23 166.465 93.23ZM171.536 85.6V82.695H178.116V108H174.896V85.6H171.536ZM187.682 101.21C187.915 102.54 188.452 103.567 189.292 104.29C190.155 105.013 191.31 105.375 192.757 105.375C194.694 105.375 196.117 104.617 197.027 103.1C197.96 101.583 198.404 99.0283 198.357 95.435C197.867 96.485 197.05 97.3133 195.907 97.92C194.764 98.5033 193.492 98.795 192.092 98.795C190.529 98.795 189.129 98.48 187.892 97.85C186.679 97.1967 185.722 96.2517 185.022 95.015C184.322 93.7783 183.972 92.285 183.972 90.535C183.972 88.0383 184.695 86.0317 186.142 84.515C187.589 82.975 189.642 82.205 192.302 82.205C195.569 82.205 197.855 83.2667 199.162 85.39C200.492 87.5133 201.157 90.675 201.157 94.875C201.157 97.815 200.889 100.242 200.352 102.155C199.839 104.068 198.952 105.527 197.692 106.53C196.455 107.533 194.752 108.035 192.582 108.035C190.202 108.035 188.347 107.393 187.017 106.11C185.687 104.827 184.929 103.193 184.742 101.21H187.682ZM192.617 96.1C194.18 96.1 195.464 95.6217 196.467 94.665C197.47 93.685 197.972 92.3667 197.972 90.71C197.972 88.96 197.482 87.5483 196.502 86.475C195.522 85.4017 194.145 84.865 192.372 84.865C190.739 84.865 189.432 85.3783 188.452 86.405C187.495 87.4317 187.017 88.785 187.017 90.465C187.017 92.1683 187.495 93.5333 188.452 94.56C189.409 95.5867 190.797 96.1 192.617 96.1ZM204.968 98.34C204.968 96.38 205.365 94.665 206.158 93.195C206.951 91.7017 208.036 90.5467 209.413 89.73C210.813 88.9133 212.365 88.505 214.068 88.505C215.748 88.505 217.206 88.8667 218.443 89.59C219.68 90.3133 220.601 91.2233 221.208 92.32V88.82H224.428V108H221.208V104.43C220.578 105.55 219.633 106.483 218.373 107.23C217.136 107.953 215.69 108.315 214.033 108.315C212.33 108.315 210.79 107.895 209.413 107.055C208.036 106.215 206.951 105.037 206.158 103.52C205.365 102.003 204.968 100.277 204.968 98.34ZM221.208 98.375C221.208 96.9283 220.916 95.6683 220.333 94.595C219.75 93.5217 218.956 92.705 217.953 92.145C216.973 91.5617 215.888 91.27 214.698 91.27C213.508 91.27 212.423 91.55 211.443 92.11C210.463 92.67 209.681 93.4867 209.098 94.56C208.515 95.6333 208.223 96.8933 208.223 98.34C208.223 99.81 208.515 101.093 209.098 102.19C209.681 103.263 210.463 104.092 211.443 104.675C212.423 105.235 213.508 105.515 214.698 105.515C215.888 105.515 216.973 105.235 217.953 104.675C218.956 104.092 219.75 103.263 220.333 102.19C220.916 101.093 221.208 99.8217 221.208 98.375ZM252.875 88.47C254.369 88.47 255.699 88.785 256.865 89.415C258.032 90.0217 258.954 90.9433 259.63 92.18C260.307 93.4167 260.645 94.9217 260.645 96.695V108H257.495V97.15C257.495 95.2367 257.017 93.7783 256.06 92.775C255.127 91.7483 253.855 91.235 252.245 91.235C250.589 91.235 249.27 91.7717 248.29 92.845C247.31 93.895 246.82 95.4233 246.82 97.43V108H243.67V97.15C243.67 95.2367 243.192 93.7783 242.235 92.775C241.302 91.7483 240.03 91.235 238.42 91.235C236.764 91.235 235.445 91.7717 234.465 92.845C233.485 93.895 232.995 95.4233 232.995 97.43V108H229.81V88.82H232.995V91.585C233.625 90.5817 234.465 89.8117 235.515 89.275C236.589 88.7383 237.767 88.47 239.05 88.47C240.66 88.47 242.084 88.8317 243.32 89.555C244.557 90.2783 245.479 91.34 246.085 92.74C246.622 91.3867 247.509 90.3367 248.745 89.59C249.982 88.8433 251.359 88.47 252.875 88.47ZM303.712 108H300.527L287.717 88.575V108H284.532V83.57H287.717L300.527 102.96V83.57H303.712V108ZM326.641 97.675C326.641 98.2817 326.606 98.9233 326.536 99.6H311.206C311.323 101.49 311.965 102.972 313.131 104.045C314.321 105.095 315.756 105.62 317.436 105.62C318.813 105.62 319.956 105.305 320.866 104.675C321.8 104.022 322.453 103.158 322.826 102.085H326.256C325.743 103.928 324.716 105.433 323.176 106.6C321.636 107.743 319.723 108.315 317.436 108.315C315.616 108.315 313.983 107.907 312.536 107.09C311.113 106.273 309.993 105.118 309.176 103.625C308.36 102.108 307.951 100.358 307.951 98.375C307.951 96.3917 308.348 94.6533 309.141 93.16C309.935 91.6667 311.043 90.5233 312.466 89.73C313.913 88.9133 315.57 88.505 317.436 88.505C319.256 88.505 320.866 88.9017 322.266 89.695C323.666 90.4883 324.74 91.585 325.486 92.985C326.256 94.3617 326.641 95.925 326.641 97.675ZM323.351 97.01C323.351 95.7967 323.083 94.7583 322.546 93.895C322.01 93.0083 321.275 92.3433 320.341 91.9C319.431 91.4333 318.416 91.2 317.296 91.2C315.686 91.2 314.31 91.7133 313.166 92.74C312.046 93.7667 311.405 95.19 311.241 97.01H323.351ZM356.395 88.82L350.41 108H347.12L342.5 92.775L337.88 108H334.59L328.57 88.82H331.825L336.235 104.92L340.995 88.82H344.25L348.905 104.955L353.245 88.82H356.395ZM381.172 83.605V101.63C381.172 103.637 380.554 105.247 379.317 106.46C378.081 107.65 376.447 108.245 374.417 108.245C372.364 108.245 370.719 107.638 369.482 106.425C368.246 105.188 367.627 103.508 367.627 101.385H370.812C370.836 102.575 371.139 103.543 371.722 104.29C372.329 105.037 373.227 105.41 374.417 105.41C375.607 105.41 376.494 105.06 377.077 104.36C377.661 103.637 377.952 102.727 377.952 101.63V83.605H381.172ZM404.947 97.675C404.947 98.2817 404.912 98.9233 404.842 99.6H389.512C389.629 101.49 390.27 102.972 391.437 104.045C392.627 105.095 394.062 105.62 395.742 105.62C397.119 105.62 398.262 105.305 399.172 104.675C400.105 104.022 400.759 103.158 401.132 102.085H404.562C404.049 103.928 403.022 105.433 401.482 106.6C399.942 107.743 398.029 108.315 395.742 108.315C393.922 108.315 392.289 107.907 390.842 107.09C389.419 106.273 388.299 105.118 387.482 103.625C386.665 102.108 386.257 100.358 386.257 98.375C386.257 96.3917 386.654 94.6533 387.447 93.16C388.24 91.6667 389.349 90.5233 390.772 89.73C392.219 88.9133 393.875 88.505 395.742 88.505C397.562 88.505 399.172 88.9017 400.572 89.695C401.972 90.4883 403.045 91.585 403.792 92.985C404.562 94.3617 404.947 95.925 404.947 97.675ZM401.657 97.01C401.657 95.7967 401.389 94.7583 400.852 93.895C400.315 93.0083 399.58 92.3433 398.647 91.9C397.737 91.4333 396.722 91.2 395.602 91.2C393.992 91.2 392.615 91.7133 391.472 92.74C390.352 93.7667 389.71 95.19 389.547 97.01H401.657ZM412.336 91.935C412.896 90.8383 413.689 89.9867 414.716 89.38C415.766 88.7733 417.038 88.47 418.531 88.47V91.76H417.691C414.121 91.76 412.336 93.6967 412.336 97.57V108H409.151V88.82H412.336V91.935ZM428.998 108.315C427.528 108.315 426.209 108.07 425.043 107.58C423.876 107.067 422.954 106.367 422.278 105.48C421.601 104.57 421.228 103.532 421.158 102.365H424.448C424.541 103.322 424.984 104.103 425.778 104.71C426.594 105.317 427.656 105.62 428.963 105.62C430.176 105.62 431.133 105.352 431.833 104.815C432.533 104.278 432.883 103.602 432.883 102.785C432.883 101.945 432.509 101.327 431.763 100.93C431.016 100.51 429.861 100.102 428.298 99.705C426.874 99.3317 425.708 98.9583 424.798 98.585C423.911 98.1883 423.141 97.6167 422.488 96.87C421.858 96.1 421.543 95.0967 421.543 93.86C421.543 92.88 421.834 91.9817 422.418 91.165C423.001 90.3483 423.829 89.7067 424.903 89.24C425.976 88.75 427.201 88.505 428.578 88.505C430.701 88.505 432.416 89.0417 433.723 90.115C435.029 91.1883 435.729 92.6583 435.823 94.525H432.638C432.568 93.5217 432.159 92.7167 431.413 92.11C430.689 91.5033 429.709 91.2 428.473 91.2C427.329 91.2 426.419 91.445 425.743 91.935C425.066 92.425 424.728 93.0667 424.728 93.86C424.728 94.49 424.926 95.015 425.323 95.435C425.743 95.8317 426.256 96.1583 426.863 96.415C427.493 96.6483 428.356 96.9167 429.453 97.22C430.829 97.5933 431.949 97.9667 432.813 98.34C433.676 98.69 434.411 99.2267 435.018 99.95C435.648 100.673 435.974 101.618 435.998 102.785C435.998 103.835 435.706 104.78 435.123 105.62C434.539 106.46 433.711 107.125 432.638 107.615C431.588 108.082 430.374 108.315 428.998 108.315ZM457.994 97.675C457.994 98.2817 457.959 98.9233 457.889 99.6H442.559C442.675 101.49 443.317 102.972 444.484 104.045C445.674 105.095 447.109 105.62 448.789 105.62C450.165 105.62 451.309 105.305 452.219 104.675C453.152 104.022 453.805 103.158 454.179 102.085H457.609C457.095 103.928 456.069 105.433 454.529 106.6C452.989 107.743 451.075 108.315 448.789 108.315C446.969 108.315 445.335 107.907 443.889 107.09C442.465 106.273 441.345 105.118 440.529 103.625C439.712 102.108 439.304 100.358 439.304 98.375C439.304 96.3917 439.7 94.6533 440.494 93.16C441.287 91.6667 442.395 90.5233 443.819 89.73C445.265 88.9133 446.922 88.505 448.789 88.505C450.609 88.505 452.219 88.9017 453.619 89.695C455.019 90.4883 456.092 91.585 456.839 92.985C457.609 94.3617 457.994 95.925 457.994 97.675ZM454.704 97.01C454.704 95.7967 454.435 94.7583 453.899 93.895C453.362 93.0083 452.627 92.3433 451.694 91.9C450.784 91.4333 449.769 91.2 448.649 91.2C447.039 91.2 445.662 91.7133 444.519 92.74C443.399 93.7667 442.757 95.19 442.594 97.01H454.704ZM478.718 88.82L467.168 117.03H463.878L467.658 107.79L459.923 88.82H463.458L469.478 104.36L475.428 88.82H478.718ZM490.341 105.445C493.304 103.065 495.626 101.117 497.306 99.6C498.986 98.06 500.397 96.4617 501.541 94.805C502.707 93.125 503.291 91.48 503.291 89.87C503.291 88.3533 502.917 87.1633 502.171 86.3C501.447 85.4133 500.269 84.97 498.636 84.97C497.049 84.97 495.812 85.4717 494.926 86.475C494.062 87.455 493.596 88.7733 493.526 90.43H490.446C490.539 87.8167 491.332 85.7983 492.826 84.375C494.319 82.9517 496.244 82.24 498.601 82.24C501.004 82.24 502.906 82.905 504.306 84.235C505.729 85.565 506.441 87.3967 506.441 89.73C506.441 91.6667 505.857 93.5567 504.691 95.4C503.547 97.22 502.241 98.83 500.771 100.23C499.301 101.607 497.422 103.217 495.136 105.06H507.176V107.72H490.341V105.445ZM512.398 108.21C511.791 108.21 511.278 108 510.858 107.58C510.438 107.16 510.228 106.647 510.228 106.04C510.228 105.433 510.438 104.92 510.858 104.5C511.278 104.08 511.791 103.87 512.398 103.87C512.981 103.87 513.471 104.08 513.868 104.5C514.288 104.92 514.498 105.433 514.498 106.04C514.498 106.647 514.288 107.16 513.868 107.58C513.471 108 512.981 108.21 512.398 108.21ZM512.398 93.23C511.791 93.23 511.278 93.02 510.858 92.6C510.438 92.18 510.228 91.6667 510.228 91.06C510.228 90.4533 510.438 89.94 510.858 89.52C511.278 89.1 511.791 88.89 512.398 88.89C512.981 88.89 513.471 89.1 513.868 89.52C514.288 89.94 514.498 90.4533 514.498 91.06C514.498 91.6667 514.288 92.18 513.868 92.6C513.471 93.02 512.981 93.23 512.398 93.23ZM517.469 85.6V82.695H524.049V108H520.829V85.6H517.469ZM533.615 101.21C533.848 102.54 534.385 103.567 535.225 104.29C536.088 105.013 537.243 105.375 538.69 105.375C540.626 105.375 542.05 104.617 542.96 103.1C543.893 101.583 544.336 99.0283 544.29 95.435C543.8 96.485 542.983 97.3133 541.84 97.92C540.696 98.5033 539.425 98.795 538.025 98.795C536.461 98.795 535.061 98.48 533.825 97.85C532.611 97.1967 531.655 96.2517 530.955 95.015C530.255 93.7783 529.905 92.285 529.905 90.535C529.905 88.0383 530.628 86.0317 532.075 84.515C533.521 82.975 535.575 82.205 538.235 82.205C541.501 82.205 543.788 83.2667 545.095 85.39C546.425 87.5133 547.09 90.675 547.09 94.875C547.09 97.815 546.821 100.242 546.285 102.155C545.771 104.068 544.885 105.527 543.625 106.53C542.388 107.533 540.685 108.035 538.515 108.035C536.135 108.035 534.28 107.393 532.95 106.11C531.62 104.827 530.861 103.193 530.675 101.21H533.615ZM538.55 96.1C540.113 96.1 541.396 95.6217 542.4 94.665C543.403 93.685 543.905 92.3667 543.905 90.71C543.905 88.96 543.415 87.5483 542.435 86.475C541.455 85.4017 540.078 84.865 538.305 84.865C536.671 84.865 535.365 85.3783 534.385 86.405C533.428 87.4317 532.95 88.785 532.95 90.465C532.95 92.1683 533.428 93.5333 534.385 94.56C535.341 95.5867 536.73 96.1 538.55 96.1ZM550.901 98.34C550.901 96.38 551.297 94.665 552.091 93.195C552.884 91.7017 553.969 90.5467 555.346 89.73C556.746 88.9133 558.297 88.505 560.001 88.505C561.681 88.505 563.139 88.8667 564.376 89.59C565.612 90.3133 566.534 91.2233 567.141 92.32V88.82H570.361V108H567.141V104.43C566.511 105.55 565.566 106.483 564.306 107.23C563.069 107.953 561.622 108.315 559.966 108.315C558.262 108.315 556.722 107.895 555.346 107.055C553.969 106.215 552.884 105.037 552.091 103.52C551.297 102.003 550.901 100.277 550.901 98.34ZM567.141 98.375C567.141 96.9283 566.849 95.6683 566.266 94.595C565.682 93.5217 564.889 92.705 563.886 92.145C562.906 91.5617 561.821 91.27 560.631 91.27C559.441 91.27 558.356 91.55 557.376 92.11C556.396 92.67 555.614 93.4867 555.031 94.56C554.447 95.6333 554.156 96.8933 554.156 98.34C554.156 99.81 554.447 101.093 555.031 102.19C555.614 103.263 556.396 104.092 557.376 104.675C558.356 105.235 559.441 105.515 560.631 105.515C561.821 105.515 562.906 105.235 563.886 104.675C564.889 104.092 565.682 103.263 566.266 102.19C566.849 101.093 567.141 99.8217 567.141 98.375ZM598.808 88.47C600.301 88.47 601.631 88.785 602.798 89.415C603.965 90.0217 604.886 90.9433 605.563 92.18C606.24 93.4167 606.578 94.9217 606.578 96.695V108H603.428V97.15C603.428 95.2367 602.95 93.7783 601.993 92.775C601.06 91.7483 599.788 91.235 598.178 91.235C596.521 91.235 595.203 91.7717 594.223 92.845C593.243 93.895 592.753 95.4233 592.753 97.43V108H589.603V97.15C589.603 95.2367 589.125 93.7783 588.168 92.775C587.235 91.7483 585.963 91.235 584.353 91.235C582.696 91.235 581.378 91.7717 580.398 92.845C579.418 93.895 578.928 95.4233 578.928 97.43V108H575.743V88.82H578.928V91.585C579.558 90.5817 580.398 89.8117 581.448 89.275C582.521 88.7383 583.7 88.47 584.983 88.47C586.593 88.47 588.016 88.8317 589.253 89.555C590.49 90.2783 591.411 91.34 592.018 92.74C592.555 91.3867 593.441 90.3367 594.678 89.59C595.915 88.8433 597.291 88.47 598.808 88.47ZM629.275 95.785C629.275 93.405 629.811 91.27 630.885 89.38C631.958 87.4667 633.416 85.9733 635.26 84.9C637.126 83.8267 639.191 83.29 641.455 83.29C644.115 83.29 646.436 83.9317 648.42 85.215C650.403 86.4983 651.85 88.3183 652.76 90.675H648.945C648.268 89.205 647.288 88.0733 646.005 87.28C644.745 86.4867 643.228 86.09 641.455 86.09C639.751 86.09 638.223 86.4867 636.87 87.28C635.516 88.0733 634.455 89.205 633.685 90.675C632.915 92.1217 632.53 93.825 632.53 95.785C632.53 97.7217 632.915 99.425 633.685 100.895C634.455 102.342 635.516 103.462 636.87 104.255C638.223 105.048 639.751 105.445 641.455 105.445C643.228 105.445 644.745 105.06 646.005 104.29C647.288 103.497 648.268 102.365 648.945 100.895H652.76C651.85 103.228 650.403 105.037 648.42 106.32C646.436 107.58 644.115 108.21 641.455 108.21C639.191 108.21 637.126 107.685 635.26 106.635C633.416 105.562 631.958 104.08 630.885 102.19C629.811 100.3 629.275 98.165 629.275 95.785ZM667.021 88.47C668.467 88.47 669.774 88.785 670.941 89.415C672.107 90.0217 673.017 90.9433 673.671 92.18C674.347 93.4167 674.686 94.9217 674.686 96.695V108H671.536V97.15C671.536 95.2367 671.057 93.7783 670.101 92.775C669.144 91.7483 667.837 91.235 666.181 91.235C664.501 91.235 663.159 91.76 662.156 92.81C661.176 93.86 660.686 95.3883 660.686 97.395V108H657.501V82.1H660.686V91.55C661.316 90.57 662.179 89.8117 663.276 89.275C664.396 88.7383 665.644 88.47 667.021 88.47ZM681.533 85.705C680.927 85.705 680.413 85.495 679.993 85.075C679.573 84.655 679.363 84.1417 679.363 83.535C679.363 82.9283 679.573 82.415 679.993 81.995C680.413 81.575 680.927 81.365 681.533 81.365C682.117 81.365 682.607 81.575 683.003 81.995C683.423 82.415 683.633 82.9283 683.633 83.535C683.633 84.1417 683.423 84.655 683.003 85.075C682.607 85.495 682.117 85.705 681.533 85.705ZM683.073 88.82V108H679.888V88.82H683.073ZM687.312 98.375C687.312 96.3917 687.708 94.665 688.502 93.195C689.295 91.7017 690.392 90.5467 691.792 89.73C693.215 88.9133 694.837 88.505 696.657 88.505C699.013 88.505 700.95 89.0767 702.467 90.22C704.007 91.3633 705.022 92.95 705.512 94.98H702.082C701.755 93.8133 701.113 92.8917 700.157 92.215C699.223 91.5383 698.057 91.2 696.657 91.2C694.837 91.2 693.367 91.83 692.247 93.09C691.127 94.3267 690.567 96.0883 690.567 98.375C690.567 100.685 691.127 102.47 692.247 103.73C693.367 104.99 694.837 105.62 696.657 105.62C698.057 105.62 699.223 105.293 700.157 104.64C701.09 103.987 701.732 103.053 702.082 101.84H705.512C704.998 103.8 703.972 105.375 702.432 106.565C700.892 107.732 698.967 108.315 696.657 108.315C694.837 108.315 693.215 107.907 691.792 107.09C690.392 106.273 689.295 105.118 688.502 103.625C687.708 102.132 687.312 100.382 687.312 98.375ZM708.571 98.34C708.571 96.38 708.968 94.665 709.761 93.195C710.555 91.7017 711.64 90.5467 713.016 89.73C714.416 88.9133 715.968 88.505 717.671 88.505C719.351 88.505 720.81 88.8667 722.046 89.59C723.283 90.3133 724.205 91.2233 724.811 92.32V88.82H728.031V108H724.811V104.43C724.181 105.55 723.236 106.483 721.976 107.23C720.74 107.953 719.293 108.315 717.636 108.315C715.933 108.315 714.393 107.895 713.016 107.055C711.64 106.215 710.555 105.037 709.761 103.52C708.968 102.003 708.571 100.277 708.571 98.34ZM724.811 98.375C724.811 96.9283 724.52 95.6683 723.936 94.595C723.353 93.5217 722.56 92.705 721.556 92.145C720.576 91.5617 719.491 91.27 718.301 91.27C717.111 91.27 716.026 91.55 715.046 92.11C714.066 92.67 713.285 93.4867 712.701 94.56C712.118 95.6333 711.826 96.8933 711.826 98.34C711.826 99.81 712.118 101.093 712.701 102.19C713.285 103.263 714.066 104.092 715.046 104.675C716.026 105.235 717.111 105.515 718.301 105.515C719.491 105.515 720.576 105.235 721.556 104.675C722.56 104.092 723.353 103.263 723.936 102.19C724.52 101.093 724.811 99.8217 724.811 98.375ZM741.324 88.505C742.98 88.505 744.427 88.8667 745.664 89.59C746.924 90.3133 747.857 91.2233 748.464 92.32V88.82H751.684V108.42C751.684 110.17 751.31 111.722 750.564 113.075C749.817 114.452 748.744 115.525 747.344 116.295C745.967 117.065 744.357 117.45 742.514 117.45C739.994 117.45 737.894 116.855 736.214 115.665C734.534 114.475 733.542 112.853 733.239 110.8H736.389C736.739 111.967 737.462 112.9 738.559 113.6C739.655 114.323 740.974 114.685 742.514 114.685C744.264 114.685 745.687 114.137 746.784 113.04C747.904 111.943 748.464 110.403 748.464 108.42V104.395C747.834 105.515 746.9 106.448 745.664 107.195C744.427 107.942 742.98 108.315 741.324 108.315C739.62 108.315 738.069 107.895 736.669 107.055C735.292 106.215 734.207 105.037 733.414 103.52C732.62 102.003 732.224 100.277 732.224 98.34C732.224 96.38 732.62 94.665 733.414 93.195C734.207 91.7017 735.292 90.5467 736.669 89.73C738.069 88.9133 739.62 88.505 741.324 88.505ZM748.464 98.375C748.464 96.9283 748.172 95.6683 747.589 94.595C747.005 93.5217 746.212 92.705 745.209 92.145C744.229 91.5617 743.144 91.27 741.954 91.27C740.764 91.27 739.679 91.55 738.699 92.11C737.719 92.67 736.937 93.4867 736.354 94.56C735.77 95.6333 735.479 96.8933 735.479 98.34C735.479 99.81 735.77 101.093 736.354 102.19C736.937 103.263 737.719 104.092 738.699 104.675C739.679 105.235 740.764 105.515 741.954 105.515C743.144 105.515 744.229 105.235 745.209 104.675C746.212 104.092 747.005 103.263 747.589 102.19C748.172 101.093 748.464 99.8217 748.464 98.375ZM765.431 108.315C763.634 108.315 762.001 107.907 760.531 107.09C759.084 106.273 757.941 105.118 757.101 103.625C756.284 102.108 755.876 100.358 755.876 98.375C755.876 96.415 756.296 94.6883 757.136 93.195C757.999 91.6783 759.166 90.5233 760.636 89.73C762.106 88.9133 763.751 88.505 765.571 88.505C767.391 88.505 769.036 88.9133 770.506 89.73C771.976 90.5233 773.131 91.6667 773.971 93.16C774.834 94.6533 775.266 96.3917 775.266 98.375C775.266 100.358 774.823 102.108 773.936 103.625C773.073 105.118 771.894 106.273 770.401 107.09C768.908 107.907 767.251 108.315 765.431 108.315ZM765.431 105.515C766.574 105.515 767.648 105.247 768.651 104.71C769.654 104.173 770.459 103.368 771.066 102.295C771.696 101.222 772.011 99.915 772.011 98.375C772.011 96.835 771.708 95.5283 771.101 94.455C770.494 93.3817 769.701 92.5883 768.721 92.075C767.741 91.5383 766.679 91.27 765.536 91.27C764.369 91.27 763.296 91.5383 762.316 92.075C761.359 92.5883 760.589 93.3817 760.006 94.455C759.423 95.5283 759.131 96.835 759.131 98.375C759.131 99.9383 759.411 101.257 759.971 102.33C760.554 103.403 761.324 104.208 762.281 104.745C763.238 105.258 764.288 105.515 765.431 105.515ZM787.42 85.6V82.695H794V108H790.78V85.6H787.42ZM801.011 108.21C800.404 108.21 799.891 108 799.471 107.58C799.051 107.16 798.841 106.647 798.841 106.04C798.841 105.433 799.051 104.92 799.471 104.5C799.891 104.08 800.404 103.87 801.011 103.87C801.594 103.87 802.084 104.08 802.481 104.5C802.901 104.92 803.111 105.433 803.111 106.04C803.111 106.647 802.901 107.16 802.481 107.58C802.084 108 801.594 108.21 801.011 108.21ZM801.011 93.23C800.404 93.23 799.891 93.02 799.471 92.6C799.051 92.18 798.841 91.6667 798.841 91.06C798.841 90.4533 799.051 89.94 799.471 89.52C799.891 89.1 800.404 88.89 801.011 88.89C801.594 88.89 802.084 89.1 802.481 89.52C802.901 89.94 803.111 90.4533 803.111 91.06C803.111 91.6667 802.901 92.18 802.481 92.6C802.084 93.02 801.594 93.23 801.011 93.23ZM806.082 85.6V82.695H812.662V108H809.442V85.6H806.082ZM822.228 101.21C822.461 102.54 822.998 103.567 823.838 104.29C824.701 105.013 825.856 105.375 827.303 105.375C829.24 105.375 830.663 104.617 831.573 103.1C832.506 101.583 832.95 99.0283 832.903 95.435C832.413 96.485 831.596 97.3133 830.453 97.92C829.31 98.5033 828.038 98.795 826.638 98.795C825.075 98.795 823.675 98.48 822.438 97.85C821.225 97.1967 820.268 96.2517 819.568 95.015C818.868 93.7783 818.518 92.285 818.518 90.535C818.518 88.0383 819.241 86.0317 820.688 84.515C822.135 82.975 824.188 82.205 826.848 82.205C830.115 82.205 832.401 83.2667 833.708 85.39C835.038 87.5133 835.703 90.675 835.703 94.875C835.703 97.815 835.435 100.242 834.898 102.155C834.385 104.068 833.498 105.527 832.238 106.53C831.001 107.533 829.298 108.035 827.128 108.035C824.748 108.035 822.893 107.393 821.563 106.11C820.233 104.827 819.475 103.193 819.288 101.21H822.228ZM827.163 96.1C828.726 96.1 830.01 95.6217 831.013 94.665C832.016 93.685 832.518 92.3667 832.518 90.71C832.518 88.96 832.028 87.5483 831.048 86.475C830.068 85.4017 828.691 84.865 826.918 84.865C825.285 84.865 823.978 85.3783 822.998 86.405C822.041 87.4317 821.563 88.785 821.563 90.465C821.563 92.1683 822.041 93.5333 822.998 94.56C823.955 95.5867 825.343 96.1 827.163 96.1ZM839.514 98.34C839.514 96.38 839.91 94.665 840.704 93.195C841.497 91.7017 842.582 90.5467 843.959 89.73C845.359 88.9133 846.91 88.505 848.614 88.505C850.294 88.505 851.752 88.8667 852.989 89.59C854.225 90.3133 855.147 91.2233 855.754 92.32V88.82H858.974V108H855.754V104.43C855.124 105.55 854.179 106.483 852.919 107.23C851.682 107.953 850.235 108.315 848.579 108.315C846.875 108.315 845.335 107.895 843.959 107.055C842.582 106.215 841.497 105.037 840.704 103.52C839.91 102.003 839.514 100.277 839.514 98.34ZM855.754 98.375C855.754 96.9283 855.462 95.6683 854.879 94.595C854.295 93.5217 853.502 92.705 852.499 92.145C851.519 91.5617 850.434 91.27 849.244 91.27C848.054 91.27 846.969 91.55 845.989 92.11C845.009 92.67 844.227 93.4867 843.644 94.56C843.06 95.6333 842.769 96.8933 842.769 98.34C842.769 99.81 843.06 101.093 843.644 102.19C844.227 103.263 845.009 104.092 845.989 104.675C846.969 105.235 848.054 105.515 849.244 105.515C850.434 105.515 851.519 105.235 852.499 104.675C853.502 104.092 854.295 103.263 854.879 102.19C855.462 101.093 855.754 99.8217 855.754 98.375ZM887.421 88.47C888.914 88.47 890.244 88.785 891.411 89.415C892.578 90.0217 893.499 90.9433 894.176 92.18C894.853 93.4167 895.191 94.9217 895.191 96.695V108H892.041V97.15C892.041 95.2367 891.563 93.7783 890.606 92.775C889.673 91.7483 888.401 91.235 886.791 91.235C885.134 91.235 883.816 91.7717 882.836 92.845C881.856 93.895 881.366 95.4233 881.366 97.43V108H878.216V97.15C878.216 95.2367 877.738 93.7783 876.781 92.775C875.848 91.7483 874.576 91.235 872.966 91.235C871.309 91.235 869.991 91.7717 869.011 92.845C868.031 93.895 867.541 95.4233 867.541 97.43V108H864.356V88.82H867.541V91.585C868.171 90.5817 869.011 89.8117 870.061 89.275C871.134 88.7383 872.313 88.47 873.596 88.47C875.206 88.47 876.629 88.8317 877.866 89.555C879.103 90.2783 880.024 91.34 880.631 92.74C881.168 91.3867 882.054 90.3367 883.291 89.59C884.528 88.8433 885.904 88.47 887.421 88.47ZM922.263 105.41H930.803V108H919.078V83.605H922.263V105.41ZM942.55 108.315C940.754 108.315 939.12 107.907 937.65 107.09C936.204 106.273 935.06 105.118 934.22 103.625C933.404 102.108 932.995 100.358 932.995 98.375C932.995 96.415 933.415 94.6883 934.255 93.195C935.119 91.6783 936.285 90.5233 937.755 89.73C939.225 88.9133 940.87 88.505 942.69 88.505C944.51 88.505 946.155 88.9133 947.625 89.73C949.095 90.5233 950.25 91.6667 951.09 93.16C951.954 94.6533 952.385 96.3917 952.385 98.375C952.385 100.358 951.942 102.108 951.055 103.625C950.192 105.118 949.014 106.273 947.52 107.09C946.027 107.907 944.37 108.315 942.55 108.315ZM942.55 105.515C943.694 105.515 944.767 105.247 945.77 104.71C946.774 104.173 947.579 103.368 948.185 102.295C948.815 101.222 949.13 99.915 949.13 98.375C949.13 96.835 948.827 95.5283 948.22 94.455C947.614 93.3817 946.82 92.5883 945.84 92.075C944.86 91.5383 943.799 91.27 942.655 91.27C941.489 91.27 940.415 91.5383 939.435 92.075C938.479 92.5883 937.709 93.3817 937.125 94.455C936.542 95.5283 936.25 96.835 936.25 98.375C936.25 99.9383 936.53 101.257 937.09 102.33C937.674 103.403 938.444 104.208 939.4 104.745C940.357 105.258 941.407 105.515 942.55 105.515ZM965.918 88.47C968.251 88.47 970.141 89.1817 971.588 90.605C973.035 92.005 973.758 94.035 973.758 96.695V108H970.608V97.15C970.608 95.2367 970.13 93.7783 969.173 92.775C968.216 91.7483 966.91 91.235 965.253 91.235C963.573 91.235 962.231 91.76 961.228 92.81C960.248 93.86 959.758 95.3883 959.758 97.395V108H956.573V88.82H959.758V91.55C960.388 90.57 961.24 89.8117 962.313 89.275C963.41 88.7383 964.611 88.47 965.918 88.47ZM977.771 98.34C977.771 96.38 978.167 94.665 978.961 93.195C979.754 91.7017 980.839 90.5467 982.216 89.73C983.616 88.9133 985.179 88.505 986.906 88.505C988.399 88.505 989.787 88.855 991.071 89.555C992.354 90.2317 993.334 91.13 994.011 92.25V82.1H997.231V108H994.011V104.395C993.381 105.538 992.447 106.483 991.211 107.23C989.974 107.953 988.527 108.315 986.871 108.315C985.167 108.315 983.616 107.895 982.216 107.055C980.839 106.215 979.754 105.037 978.961 103.52C978.167 102.003 977.771 100.277 977.771 98.34ZM994.011 98.375C994.011 96.9283 993.719 95.6683 993.136 94.595C992.552 93.5217 991.759 92.705 990.756 92.145C989.776 91.5617 988.691 91.27 987.501 91.27C986.311 91.27 985.226 91.55 984.246 92.11C983.266 92.67 982.484 93.4867 981.901 94.56C981.317 95.6333 981.026 96.8933 981.026 98.34C981.026 99.81 981.317 101.093 981.901 102.19C982.484 103.263 983.266 104.092 984.246 104.675C985.226 105.235 986.311 105.515 987.501 105.515C988.691 105.515 989.776 105.235 990.756 104.675C991.759 104.092 992.552 103.263 993.136 102.19C993.719 101.093 994.011 99.8217 994.011 98.375ZM1010.98 108.315C1009.18 108.315 1007.55 107.907 1006.08 107.09C1004.63 106.273 1003.49 105.118 1002.65 103.625C1001.83 102.108 1001.42 100.358 1001.42 98.375C1001.42 96.415 1001.84 94.6883 1002.68 93.195C1003.55 91.6783 1004.71 90.5233 1006.18 89.73C1007.65 88.9133 1009.3 88.505 1011.12 88.505C1012.94 88.505 1014.58 88.9133 1016.05 89.73C1017.52 90.5233 1018.68 91.6667 1019.52 93.16C1020.38 94.6533 1020.81 96.3917 1020.81 98.375C1020.81 100.358 1020.37 102.108 1019.48 103.625C1018.62 105.118 1017.44 106.273 1015.95 107.09C1014.45 107.907 1012.8 108.315 1010.98 108.315ZM1010.98 105.515C1012.12 105.515 1013.19 105.247 1014.2 104.71C1015.2 104.173 1016.01 103.368 1016.61 102.295C1017.24 101.222 1017.56 99.915 1017.56 98.375C1017.56 96.835 1017.25 95.5283 1016.65 94.455C1016.04 93.3817 1015.25 92.5883 1014.27 92.075C1013.29 91.5383 1012.23 91.27 1011.08 91.27C1009.92 91.27 1008.84 91.5383 1007.86 92.075C1006.91 92.5883 1006.14 93.3817 1005.55 94.455C1004.97 95.5283 1004.68 96.835 1004.68 98.375C1004.68 99.9383 1004.96 101.257 1005.52 102.33C1006.1 103.403 1006.87 104.208 1007.83 104.745C1008.78 105.258 1009.83 105.515 1010.98 105.515ZM1034.35 88.47C1036.68 88.47 1038.57 89.1817 1040.02 90.605C1041.46 92.005 1042.19 94.035 1042.19 96.695V108H1039.04V97.15C1039.04 95.2367 1038.56 93.7783 1037.6 92.775C1036.64 91.7483 1035.34 91.235 1033.68 91.235C1032 91.235 1030.66 91.76 1029.66 92.81C1028.68 93.86 1028.19 95.3883 1028.19 97.395V108H1025V88.82H1028.19V91.55C1028.82 90.57 1029.67 89.8117 1030.74 89.275C1031.84 88.7383 1033.04 88.47 1034.35 88.47ZM1071.77 85.18L1062.04 108H1058.82L1068.69 85.495H1055.18V82.765H1071.77V85.18ZM1076.84 108.21C1076.23 108.21 1075.72 108 1075.3 107.58C1074.88 107.16 1074.67 106.647 1074.67 106.04C1074.67 105.433 1074.88 104.92 1075.3 104.5C1075.72 104.08 1076.23 103.87 1076.84 103.87C1077.42 103.87 1077.91 104.08 1078.31 104.5C1078.73 104.92 1078.94 105.433 1078.94 106.04C1078.94 106.647 1078.73 107.16 1078.31 107.58C1077.91 108 1077.42 108.21 1076.84 108.21ZM1076.84 93.23C1076.23 93.23 1075.72 93.02 1075.3 92.6C1074.88 92.18 1074.67 91.6667 1074.67 91.06C1074.67 90.4533 1074.88 89.94 1075.3 89.52C1075.72 89.1 1076.23 88.89 1076.84 88.89C1077.42 88.89 1077.91 89.1 1078.31 89.52C1078.73 89.94 1078.94 90.4533 1078.94 91.06C1078.94 91.6667 1078.73 92.18 1078.31 92.6C1077.91 93.02 1077.42 93.23 1076.84 93.23ZM1081.91 85.6V82.695H1088.49V108H1085.27V85.6H1081.91ZM1098.06 101.21C1098.29 102.54 1098.83 103.567 1099.67 104.29C1100.53 105.013 1101.69 105.375 1103.13 105.375C1105.07 105.375 1106.49 104.617 1107.4 103.1C1108.34 101.583 1108.78 99.0283 1108.73 95.435C1108.24 96.485 1107.43 97.3133 1106.28 97.92C1105.14 98.5033 1103.87 98.795 1102.47 98.795C1100.9 98.795 1099.5 98.48 1098.27 97.85C1097.05 97.1967 1096.1 96.2517 1095.4 95.015C1094.7 93.7783 1094.35 92.285 1094.35 90.535C1094.35 88.0383 1095.07 86.0317 1096.52 84.515C1097.96 82.975 1100.02 82.205 1102.68 82.205C1105.94 82.205 1108.23 83.2667 1109.54 85.39C1110.87 87.5133 1111.53 90.675 1111.53 94.875C1111.53 97.815 1111.26 100.242 1110.73 102.155C1110.21 104.068 1109.33 105.527 1108.07 106.53C1106.83 107.533 1105.13 108.035 1102.96 108.035C1100.58 108.035 1098.72 107.393 1097.39 106.11C1096.06 104.827 1095.3 103.193 1095.12 101.21H1098.06ZM1102.99 96.1C1104.56 96.1 1105.84 95.6217 1106.84 94.665C1107.85 93.685 1108.35 92.3667 1108.35 90.71C1108.35 88.96 1107.86 87.5483 1106.88 86.475C1105.9 85.4017 1104.52 84.865 1102.75 84.865C1101.11 84.865 1099.81 85.3783 1098.83 86.405C1097.87 87.4317 1097.39 88.785 1097.39 90.465C1097.39 92.1683 1097.87 93.5333 1098.83 94.56C1099.78 95.5867 1101.17 96.1 1102.99 96.1ZM1115.34 98.34C1115.34 96.38 1115.74 94.665 1116.53 93.195C1117.33 91.7017 1118.41 90.5467 1119.79 89.73C1121.19 88.9133 1122.74 88.505 1124.44 88.505C1126.12 88.505 1127.58 88.8667 1128.82 89.59C1130.06 90.3133 1130.98 91.2233 1131.58 92.32V88.82H1134.8V108H1131.58V104.43C1130.95 105.55 1130.01 106.483 1128.75 107.23C1127.51 107.953 1126.07 108.315 1124.41 108.315C1122.71 108.315 1121.17 107.895 1119.79 107.055C1118.41 106.215 1117.33 105.037 1116.53 103.52C1115.74 102.003 1115.34 100.277 1115.34 98.34ZM1131.58 98.375C1131.58 96.9283 1131.29 95.6683 1130.71 94.595C1130.13 93.5217 1129.33 92.705 1128.33 92.145C1127.35 91.5617 1126.26 91.27 1125.07 91.27C1123.88 91.27 1122.8 91.55 1121.82 92.11C1120.84 92.67 1120.06 93.4867 1119.47 94.56C1118.89 95.6333 1118.6 96.8933 1118.6 98.34C1118.6 99.81 1118.89 101.093 1119.47 102.19C1120.06 103.263 1120.84 104.092 1121.82 104.675C1122.8 105.235 1123.88 105.515 1125.07 105.515C1126.26 105.515 1127.35 105.235 1128.33 104.675C1129.33 104.092 1130.13 103.263 1130.71 102.19C1131.29 101.093 1131.58 99.8217 1131.58 98.375ZM1163.25 88.47C1164.74 88.47 1166.07 88.785 1167.24 89.415C1168.41 90.0217 1169.33 90.9433 1170.01 92.18C1170.68 93.4167 1171.02 94.9217 1171.02 96.695V108H1167.87V97.15C1167.87 95.2367 1167.39 93.7783 1166.44 92.775C1165.5 91.7483 1164.23 91.235 1162.62 91.235C1160.96 91.235 1159.65 91.7717 1158.67 92.845C1157.69 93.895 1157.2 95.4233 1157.2 97.43V108H1154.05V97.15C1154.05 95.2367 1153.57 93.7783 1152.61 92.775C1151.68 91.7483 1150.41 91.235 1148.8 91.235C1147.14 91.235 1145.82 91.7717 1144.84 92.845C1143.86 93.895 1143.37 95.4233 1143.37 97.43V108H1140.19V88.82H1143.37V91.585C1144 90.5817 1144.84 89.8117 1145.89 89.275C1146.96 88.7383 1148.14 88.47 1149.43 88.47C1151.04 88.47 1152.46 88.8317 1153.7 89.555C1154.93 90.2783 1155.85 91.34 1156.46 92.74C1157 91.3867 1157.88 90.3367 1159.12 89.59C1160.36 88.8433 1161.73 88.47 1163.25 88.47ZM1184.39 95.785C1184.39 93.405 1184.92 91.27 1186 89.38C1187.07 87.4667 1188.53 85.9733 1190.37 84.9C1192.24 83.8267 1194.3 83.29 1196.57 83.29C1199.23 83.29 1201.55 83.9317 1203.53 85.215C1205.52 86.4983 1206.96 88.3183 1207.87 90.675H1204.06C1203.38 89.205 1202.4 88.0733 1201.12 87.28C1199.86 86.4867 1198.34 86.09 1196.57 86.09C1194.86 86.09 1193.34 86.4867 1191.98 87.28C1190.63 88.0733 1189.57 89.205 1188.8 90.675C1188.03 92.1217 1187.64 93.825 1187.64 95.785C1187.64 97.7217 1188.03 99.425 1188.8 100.895C1189.57 102.342 1190.63 103.462 1191.98 104.255C1193.34 105.048 1194.86 105.445 1196.57 105.445C1198.34 105.445 1199.86 105.06 1201.12 104.29C1202.4 103.497 1203.38 102.365 1204.06 100.895H1207.87C1206.96 103.228 1205.52 105.037 1203.53 106.32C1201.55 107.58 1199.23 108.21 1196.57 108.21C1194.3 108.21 1192.24 107.685 1190.37 106.635C1188.53 105.562 1187.07 104.08 1186 102.19C1184.92 100.3 1184.39 98.165 1184.39 95.785ZM1222.13 88.47C1223.58 88.47 1224.89 88.785 1226.05 89.415C1227.22 90.0217 1228.13 90.9433 1228.78 92.18C1229.46 93.4167 1229.8 94.9217 1229.8 96.695V108H1226.65V97.15C1226.65 95.2367 1226.17 93.7783 1225.21 92.775C1224.26 91.7483 1222.95 91.235 1221.29 91.235C1219.61 91.235 1218.27 91.76 1217.27 92.81C1216.29 93.86 1215.8 95.3883 1215.8 97.395V108H1212.61V82.1H1215.8V91.55C1216.43 90.57 1217.29 89.8117 1218.39 89.275C1219.51 88.7383 1220.76 88.47 1222.13 88.47ZM1252.5 97.675C1252.5 98.2817 1252.47 98.9233 1252.4 99.6H1237.07C1237.18 101.49 1237.82 102.972 1238.99 104.045C1240.18 105.095 1241.62 105.62 1243.3 105.62C1244.67 105.62 1245.82 105.305 1246.73 104.675C1247.66 104.022 1248.31 103.158 1248.69 102.085H1252.12C1251.6 103.928 1250.58 105.433 1249.04 106.6C1247.5 107.743 1245.58 108.315 1243.3 108.315C1241.48 108.315 1239.84 107.907 1238.4 107.09C1236.97 106.273 1235.85 105.118 1235.04 103.625C1234.22 102.108 1233.81 100.358 1233.81 98.375C1233.81 96.3917 1234.21 94.6533 1235 93.16C1235.79 91.6667 1236.9 90.5233 1238.33 89.73C1239.77 88.9133 1241.43 88.505 1243.3 88.505C1245.12 88.505 1246.73 88.9017 1248.13 89.695C1249.53 90.4883 1250.6 91.585 1251.35 92.985C1252.12 94.3617 1252.5 95.925 1252.5 97.675ZM1249.21 97.01C1249.21 95.7967 1248.94 94.7583 1248.41 93.895C1247.87 93.0083 1247.13 92.3433 1246.2 91.9C1245.29 91.4333 1244.28 91.2 1243.16 91.2C1241.55 91.2 1240.17 91.7133 1239.03 92.74C1237.91 93.7667 1237.26 95.19 1237.1 97.01H1249.21ZM1266.05 88.47C1268.38 88.47 1270.27 89.1817 1271.72 90.605C1273.17 92.005 1273.89 94.035 1273.89 96.695V108H1270.74V97.15C1270.74 95.2367 1270.26 93.7783 1269.3 92.775C1268.35 91.7483 1267.04 91.235 1265.38 91.235C1263.7 91.235 1262.36 91.76 1261.36 92.81C1260.38 93.86 1259.89 95.3883 1259.89 97.395V108H1256.7V88.82H1259.89V91.55C1260.52 90.57 1261.37 89.8117 1262.44 89.275C1263.54 88.7383 1264.74 88.47 1266.05 88.47ZM1288.44 88.47C1290.77 88.47 1292.66 89.1817 1294.11 90.605C1295.55 92.005 1296.28 94.035 1296.28 96.695V108H1293.13V97.15C1293.13 95.2367 1292.65 93.7783 1291.69 92.775C1290.74 91.7483 1289.43 91.235 1287.77 91.235C1286.09 91.235 1284.75 91.76 1283.75 92.81C1282.77 93.86 1282.28 95.3883 1282.28 97.395V108H1279.09V88.82H1282.28V91.55C1282.91 90.57 1283.76 89.8117 1284.83 89.275C1285.93 88.7383 1287.13 88.47 1288.44 88.47ZM1300.29 98.34C1300.29 96.38 1300.69 94.665 1301.48 93.195C1302.27 91.7017 1303.36 90.5467 1304.74 89.73C1306.14 88.9133 1307.69 88.505 1309.39 88.505C1311.07 88.505 1312.53 88.8667 1313.77 89.59C1315 90.3133 1315.92 91.2233 1316.53 92.32V88.82H1319.75V108H1316.53V104.43C1315.9 105.55 1314.96 106.483 1313.7 107.23C1312.46 107.953 1311.01 108.315 1309.36 108.315C1307.65 108.315 1306.11 107.895 1304.74 107.055C1303.36 106.215 1302.27 105.037 1301.48 103.52C1300.69 102.003 1300.29 100.277 1300.29 98.34ZM1316.53 98.375C1316.53 96.9283 1316.24 95.6683 1315.66 94.595C1315.07 93.5217 1314.28 92.705 1313.28 92.145C1312.3 91.5617 1311.21 91.27 1310.02 91.27C1308.83 91.27 1307.75 91.55 1306.77 92.11C1305.79 92.67 1305 93.4867 1304.42 94.56C1303.84 95.6333 1303.55 96.8933 1303.55 98.34C1303.55 99.81 1303.84 101.093 1304.42 102.19C1305 103.263 1305.79 104.092 1306.77 104.675C1307.75 105.235 1308.83 105.515 1310.02 105.515C1311.21 105.515 1312.3 105.235 1313.28 104.675C1314.28 104.092 1315.07 103.263 1315.66 102.19C1316.24 101.093 1316.53 99.8217 1316.53 98.375ZM1326.78 85.705C1326.17 85.705 1325.66 85.495 1325.24 85.075C1324.82 84.655 1324.61 84.1417 1324.61 83.535C1324.61 82.9283 1324.82 82.415 1325.24 81.995C1325.66 81.575 1326.17 81.365 1326.78 81.365C1327.36 81.365 1327.85 81.575 1328.25 81.995C1328.67 82.415 1328.88 82.9283 1328.88 83.535C1328.88 84.1417 1328.67 84.655 1328.25 85.075C1327.85 85.495 1327.36 85.705 1326.78 85.705ZM1328.32 88.82V108H1325.13V88.82H1328.32ZM1341.71 85.6V82.695H1348.29V108H1345.07V85.6H1341.71ZM1352.92 85.6V82.695H1359.5V108H1356.28V85.6H1352.92ZM1366.51 108.21C1365.91 108.21 1365.39 108 1364.97 107.58C1364.55 107.16 1364.34 106.647 1364.34 106.04C1364.34 105.433 1364.55 104.92 1364.97 104.5C1365.39 104.08 1365.91 103.87 1366.51 103.87C1367.1 103.87 1367.59 104.08 1367.98 104.5C1368.4 104.92 1368.61 105.433 1368.61 106.04C1368.61 106.647 1368.4 107.16 1367.98 107.58C1367.59 108 1367.1 108.21 1366.51 108.21ZM1366.51 93.23C1365.91 93.23 1365.39 93.02 1364.97 92.6C1364.55 92.18 1364.34 91.6667 1364.34 91.06C1364.34 90.4533 1364.55 89.94 1364.97 89.52C1365.39 89.1 1365.91 88.89 1366.51 88.89C1367.1 88.89 1367.59 89.1 1367.98 89.52C1368.4 89.94 1368.61 90.4533 1368.61 91.06C1368.61 91.6667 1368.4 92.18 1367.98 92.6C1367.59 93.02 1367.1 93.23 1366.51 93.23ZM1371.65 102.365V99.95L1383.94 82.94H1387.75V99.6H1391.25V102.365H1387.75V108H1384.6V102.365H1371.65ZM1384.74 86.265L1375.33 99.6H1384.74V86.265ZM1398.53 101.21C1398.76 102.54 1399.3 103.567 1400.14 104.29C1401 105.013 1402.16 105.375 1403.61 105.375C1405.54 105.375 1406.97 104.617 1407.88 103.1C1408.81 101.583 1409.25 99.0283 1409.21 95.435C1408.72 96.485 1407.9 97.3133 1406.76 97.92C1405.61 98.5033 1404.34 98.795 1402.94 98.795C1401.38 98.795 1399.98 98.48 1398.74 97.85C1397.53 97.1967 1396.57 96.2517 1395.87 95.015C1395.17 93.7783 1394.82 92.285 1394.82 90.535C1394.82 88.0383 1395.54 86.0317 1396.99 84.515C1398.44 82.975 1400.49 82.205 1403.15 82.205C1406.42 82.205 1408.7 83.2667 1410.01 85.39C1411.34 87.5133 1412.01 90.675 1412.01 94.875C1412.01 97.815 1411.74 100.242 1411.2 102.155C1410.69 104.068 1409.8 105.527 1408.54 106.53C1407.3 107.533 1405.6 108.035 1403.43 108.035C1401.05 108.035 1399.2 107.393 1397.87 106.11C1396.54 104.827 1395.78 103.193 1395.59 101.21H1398.53ZM1403.47 96.1C1405.03 96.1 1406.31 95.6217 1407.32 94.665C1408.32 93.685 1408.82 92.3667 1408.82 90.71C1408.82 88.96 1408.33 87.5483 1407.35 86.475C1406.37 85.4017 1404.99 84.865 1403.22 84.865C1401.59 84.865 1400.28 85.3783 1399.3 86.405C1398.34 87.4317 1397.87 88.785 1397.87 90.465C1397.87 92.1683 1398.34 93.5333 1399.3 94.56C1400.26 95.5867 1401.65 96.1 1403.47 96.1ZM1415.82 98.34C1415.82 96.38 1416.21 94.665 1417.01 93.195C1417.8 91.7017 1418.89 90.5467 1420.26 89.73C1421.66 88.9133 1423.21 88.505 1424.92 88.505C1426.6 88.505 1428.06 88.8667 1429.29 89.59C1430.53 90.3133 1431.45 91.2233 1432.06 92.32V88.82H1435.28V108H1432.06V104.43C1431.43 105.55 1430.48 106.483 1429.22 107.23C1427.99 107.953 1426.54 108.315 1424.88 108.315C1423.18 108.315 1421.64 107.895 1420.26 107.055C1418.89 106.215 1417.8 105.037 1417.01 103.52C1416.21 102.003 1415.82 100.277 1415.82 98.34ZM1432.06 98.375C1432.06 96.9283 1431.77 95.6683 1431.18 94.595C1430.6 93.5217 1429.81 92.705 1428.8 92.145C1427.82 91.5617 1426.74 91.27 1425.55 91.27C1424.36 91.27 1423.27 91.55 1422.29 92.11C1421.31 92.67 1420.53 93.4867 1419.95 94.56C1419.36 95.6333 1419.07 96.8933 1419.07 98.34C1419.07 99.81 1419.36 101.093 1419.95 102.19C1420.53 103.263 1421.31 104.092 1422.29 104.675C1423.27 105.235 1424.36 105.515 1425.55 105.515C1426.74 105.515 1427.82 105.235 1428.8 104.675C1429.81 104.092 1430.6 103.263 1431.18 102.19C1431.77 101.093 1432.06 99.8217 1432.06 98.375Z" fill="#7A7A7A"/>
</svg>
